<?xml version="1.0" encoding="UTF-8"?>
<svg id="Layer_1" xmlns="http://www.w3.org/2000/svg" viewBox="0 0 838.05 149.86">
  <defs>
    <style>
      .cls-1 {
        fill: #8670b2;
      }

      .cls-2 {
        fill: #68479c;
      }

      .cls-3 {
        fill: #f2758c;
      }

      .cls-4 {
        fill: #f8b4c0;
      }
    </style>
  </defs>
  <g>
    <path class="cls-4" d="M65.58,94.74l4.64,8.03c5.28,9.15,5.25,20.42-.08,29.54h0c-5.47,9.37-19.01,9.37-24.48,0h0c-5.33-9.12-5.36-20.39-.08-29.54l4.64-8.03c3.41-5.91,11.95-5.91,15.36,0Z"/>
    <path class="cls-4" d="M65.58,68.14l4.64-8.03c5.28-9.15,5.25-20.42-.08-29.54h0c-5.47-9.37-19.01-9.37-24.48,0h0c-5.33,9.12-5.36,20.39-.08,29.54l4.64,8.03c3.41,5.91,11.95,5.91,15.36,0Z"/>
    <path class="cls-4" d="M44.59,89.84l-8.03,4.64c-9.15,5.28-20.42,5.25-29.54-.08h0c-9.37-5.47-9.37-19.01,0-24.48h0c9.12-5.33,20.39-5.36,29.54-.08l8.03,4.64c5.91,3.41,5.91,11.95,0,15.36Z"/>
    <path class="cls-4" d="M71.2,89.84l8.03,4.64c9.15,5.28,20.42,5.25,29.54-.08h0c9.37-5.47,9.37-19.01,0-24.48h0c-9.12-5.33-20.39-5.36-29.54-.08l-8.03,4.64c-5.91,3.41-5.91,11.95,0,15.36Z"/>
    <path class="cls-4" d="M55.4,96.28l-2.4,8.96c-2.73,10.2-10.73,18.15-20.94,20.83h0c-10.49,2.75-20.06-6.82-17.31-17.31h0c2.68-10.22,10.63-18.21,20.83-20.94l8.96-2.4c6.59-1.77,12.63,4.27,10.86,10.86Z"/>
    <path class="cls-4" d="M74.21,77.46l8.96-2.4c10.2-2.73,18.15-10.73,20.83-20.94h0c2.75-10.49-6.82-20.06-17.31-17.31h0c-10.22,2.68-18.21,10.63-20.94,20.83l-2.4,8.96c-1.77,6.59,4.27,12.63,10.86,10.86Z"/>
    <path class="cls-4" d="M44.37,80.09l-8.96-2.4c-10.2-2.73-18.15-10.73-20.83-20.94h0c-2.75-10.49,6.82-20.06,17.31-17.31h0c10.22,2.68,18.21,10.63,20.94,20.83l2.4,8.96c1.77,6.59-4.27,12.63-10.86,10.86Z"/>
    <path class="cls-4" d="M63.18,98.9l2.4,8.96c2.73,10.2,10.73,18.15,20.94,20.83h0c10.49,2.75,20.06-6.82,17.31-17.31h0c-2.68-10.22-10.63-18.21-20.83-20.94l-8.96-2.4c-6.59-1.77-12.63,4.27-10.86,10.86Z"/>
    <circle class="cls-3" cx="57.13" cy="81.44" r="24.74"/>
  </g>
  <g>
    <path class="cls-1" d="M350.87,71.2l4.64,8.03c5.28,9.15,5.25,20.42-.08,29.54h0c-5.47,9.37-19.01,9.37-24.48,0h0c-5.33-9.12-5.36-20.39-.08-29.54l4.64-8.03c3.41-5.91,11.95-5.91,15.36,0Z"/>
    <path class="cls-1" d="M350.87,44.59l4.64-8.03c5.28-9.15,5.25-20.42-.08-29.54h0c-5.47-9.37-19.01-9.37-24.48,0h0c-5.33,9.12-5.36,20.39-.08,29.54l4.64,8.03c3.41,5.91,11.95,5.91,15.36,0Z"/>
    <path class="cls-1" d="M329.89,66.3l-8.03,4.64c-9.15,5.28-20.42,5.25-29.54-.08h0c-9.37-5.47-9.37-19.01,0-24.48h0c9.12-5.33,20.39-5.36,29.54-.08l8.03,4.64c5.91,3.41,5.91,11.95,0,15.36Z"/>
    <path class="cls-1" d="M356.49,66.3l8.03,4.64c9.15,5.28,20.42,5.25,29.54-.08h0c9.37-5.47,9.37-19.01,0-24.48h0c-9.12-5.33-20.39-5.36-29.54-.08l-8.03,4.64c-5.91,3.41-5.91,11.95,0,15.36Z"/>
    <path class="cls-1" d="M340.69,72.73l-2.4,8.96c-2.73,10.2-10.73,18.15-20.94,20.83h0c-10.49,2.75-20.06-6.82-17.31-17.31h0c2.68-10.22,10.63-18.21,20.83-20.94l8.96-2.4c6.59-1.77,12.63,4.27,10.86,10.86Z"/>
    <path class="cls-1" d="M359.5,53.92l8.96-2.4c10.2-2.73,18.15-10.73,20.83-20.94h0c2.75-10.49-6.82-20.06-17.31-17.31h0c-10.22,2.68-18.21,10.63-20.94,20.83l-2.4,8.96c-1.77,6.59,4.27,12.63,10.86,10.86Z"/>
    <path class="cls-1" d="M329.67,56.54l-8.96-2.4c-10.2-2.73-18.15-10.73-20.83-20.94h0c-2.75-10.49,6.82-20.06,17.31-17.31h0c10.22,2.68,18.21,10.63,20.94,20.83l2.4,8.96c1.77,6.59-4.27,12.63-10.86,10.86Z"/>
    <path class="cls-1" d="M348.48,75.35l2.4,8.96c2.73,10.2,10.73,18.15,20.94,20.83h0c10.49,2.75,20.06-6.82,17.31-17.31h0c-2.68-10.22-10.63-18.21-20.83-20.94l-8.96-2.4c-6.59-1.77-12.63,4.27-10.86,10.86Z"/>
    <circle class="cls-2" cx="342.43" cy="57.9" r="24.74"/>
  </g>
  <g>
    <path class="cls-4" d="M527.42,74.69l4.64,8.03c5.28,9.15,5.25,20.42-.08,29.54h0c-5.47,9.37-19.01,9.37-24.48,0h0c-5.33-9.12-5.36-20.39-.08-29.54l4.64-8.03c3.41-5.91,11.95-5.91,15.36,0Z"/>
    <path class="cls-4" d="M527.42,48.09l4.64-8.03c5.28-9.15,5.25-20.42-.08-29.54h0c-5.47-9.37-19.01-9.37-24.48,0h0c-5.33,9.12-5.36,20.39-.08,29.54l4.64,8.03c3.41,5.91,11.95,5.91,15.36,0Z"/>
    <path class="cls-4" d="M506.44,69.79l-8.03,4.64c-9.15,5.28-20.42,5.25-29.54-.08h0c-9.37-5.47-9.37-19.01,0-24.48h0c9.12-5.33,20.39-5.36,29.54-.08l8.03,4.64c5.91,3.41,5.91,11.95,0,15.36Z"/>
    <path class="cls-4" d="M533.04,69.79l8.03,4.64c9.15,5.28,20.42,5.25,29.54-.08h0c9.37-5.47,9.37-19.01,0-24.48h0c-9.12-5.33-20.39-5.36-29.54-.08l-8.03,4.64c-5.91,3.41-5.91,11.95,0,15.36Z"/>
    <path class="cls-4" d="M517.24,76.23l-2.4,8.96c-2.73,10.2-10.73,18.15-20.94,20.83h0c-10.49,2.75-20.06-6.82-17.31-17.31h0c2.68-10.22,10.63-18.21,20.83-20.94l8.96-2.4c6.59-1.77,12.63,4.27,10.86,10.86Z"/>
    <path class="cls-4" d="M536.05,57.42l8.96-2.4c10.2-2.73,18.15-10.73,20.83-20.94h0c2.75-10.49-6.82-20.06-17.31-17.31h0c-10.22,2.68-18.21,10.63-20.94,20.83l-2.4,8.96c-1.77,6.59,4.27,12.63,10.86,10.86Z"/>
    <path class="cls-4" d="M506.21,60.04l-8.96-2.4c-10.2-2.73-18.15-10.73-20.83-20.94h0c-2.75-10.49,6.82-20.06,17.31-17.31h0c10.22,2.68,18.21,10.63,20.94,20.83l2.4,8.96c1.77,6.59-4.27,12.63-10.86,10.86Z"/>
    <path class="cls-4" d="M525.02,78.85l2.4,8.96c2.73,10.2,10.73,18.15,20.94,20.83h0c10.49,2.75,20.06-6.82,17.31-17.31h0c-2.68-10.22-10.63-18.21-20.83-20.94l-8.96-2.4c-6.59-1.77-12.63,4.27-10.86,10.86Z"/>
    <circle class="cls-3" cx="518.97" cy="61.39" r="24.74"/>
  </g>
  <g>
    <path class="cls-1" d="M787.83,100.84l4.64,8.03c5.28,9.15,5.25,20.42-.08,29.54h0c-5.47,9.37-19.01,9.37-24.48,0h0c-5.33-9.12-5.36-20.39-.08-29.54l4.64-8.03c3.41-5.91,11.95-5.91,15.36,0Z"/>
    <path class="cls-1" d="M787.83,74.23l4.64-8.03c5.28-9.15,5.25-20.42-.08-29.54h0c-5.47-9.37-19.01-9.37-24.48,0h0c-5.33,9.12-5.36,20.39-.08,29.54l4.64,8.03c3.41,5.91,11.95,5.91,15.36,0Z"/>
    <path class="cls-1" d="M766.85,95.94l-8.03,4.64c-9.15,5.28-20.42,5.25-29.54-.08h0c-9.37-5.47-9.37-19.01,0-24.48h0c9.12-5.33,20.39-5.36,29.54-.08l8.03,4.64c5.91,3.41,5.91,11.95,0,15.36Z"/>
    <path class="cls-1" d="M793.46,95.94l8.03,4.64c9.15,5.28,20.42,5.25,29.54-.08h0c9.37-5.47,9.37-19.01,0-24.48h0c-9.12-5.33-20.39-5.36-29.54-.08l-8.03,4.64c-5.91,3.41-5.91,11.95,0,15.36Z"/>
    <path class="cls-1" d="M777.65,102.37l-2.4,8.96c-2.73,10.2-10.73,18.15-20.94,20.83h0c-10.49,2.75-20.06-6.82-17.31-17.31h0c2.68-10.22,10.63-18.21,20.83-20.94l8.96-2.4c6.59-1.77,12.63,4.27,10.86,10.86Z"/>
    <path class="cls-1" d="M796.47,83.56l8.96-2.4c10.2-2.73,18.15-10.73,20.83-20.94h0c2.75-10.49-6.82-20.06-17.31-17.31h0c-10.22,2.68-18.21,10.63-20.94,20.83l-2.4,8.96c-1.77,6.59,4.27,12.63,10.86,10.86Z"/>
    <path class="cls-1" d="M766.63,86.18l-8.96-2.4c-10.2-2.73-18.15-10.73-20.83-20.94h0c-2.75-10.49,6.82-20.06,17.31-17.31h0c10.22,2.68,18.21,10.63,20.94,20.83l2.4,8.96c1.77,6.59-4.27,12.63-10.86,10.86Z"/>
    <path class="cls-1" d="M785.44,104.99l2.4,8.96c2.73,10.2,10.73,18.15,20.94,20.83h0c10.49,2.75,20.06-6.82,17.31-17.31h0c-2.68-10.22-10.63-18.21-20.83-20.94l-8.96-2.4c-6.59-1.77-12.63,4.27-10.86,10.86Z"/>
    <circle class="cls-2" cx="779.39" cy="87.54" r="24.74"/>
  </g>
  <g>
    <path class="cls-4" d="M633.99,124.85l2.6,4.5c2.96,5.13,2.95,11.45-.04,16.57h0c-3.07,5.25-10.66,5.25-13.73,0h0c-2.99-5.11-3-11.44-.04-16.57l2.6-4.5c1.91-3.32,6.7-3.32,8.61,0Z"/>
    <path class="cls-4" d="M633.99,109.93l2.6-4.5c2.96-5.13,2.95-11.45-.04-16.57h0c-3.07-5.25-10.66-5.25-13.73,0h0c-2.99,5.11-3,11.44-.04,16.57l2.6,4.5c1.91,3.32,6.7,3.32,8.61,0Z"/>
    <path class="cls-4" d="M622.22,122.1l-4.5,2.6c-5.13,2.96-11.45,2.95-16.57-.04h0c-5.25-3.07-5.25-10.66,0-13.73h0c5.11-2.99,11.44-3,16.57-.04l4.5,2.6c3.32,1.91,3.32,6.7,0,8.61Z"/>
    <path class="cls-4" d="M637.14,122.1l4.5,2.6c5.13,2.96,11.45,2.95,16.57-.04h0c5.25-3.07,5.25-10.66,0-13.73h0c-5.11-2.99-11.44-3-16.57-.04l-4.5,2.6c-3.32,1.91-3.32,6.7,0,8.61Z"/>
    <path class="cls-4" d="M628.28,125.71l-1.35,5.02c-1.53,5.72-6.02,10.18-11.74,11.68h0c-5.88,1.54-11.25-3.82-9.71-9.71h0c1.5-5.73,5.96-10.21,11.68-11.74l5.02-1.35c3.7-.99,7.08,2.39,6.09,6.09Z"/>
    <path class="cls-4" d="M638.83,115.16l5.02-1.35c5.72-1.53,10.18-6.02,11.68-11.74h0c1.54-5.88-3.82-11.25-9.71-9.71h0c-5.73,1.5-10.21,5.96-11.74,11.68l-1.35,5.02c-.99,3.7,2.39,7.08,6.09,6.09Z"/>
    <path class="cls-4" d="M622.1,116.63l-5.02-1.35c-5.72-1.53-10.18-6.02-11.68-11.74h0c-1.54-5.88,3.82-11.25,9.71-9.71h0c5.73,1.5,10.21,5.96,11.74,11.68l1.35,5.02c.99,3.7-2.39,7.08-6.09,6.09Z"/>
    <path class="cls-4" d="M632.65,127.18l1.35,5.02c1.53,5.72,6.02,10.18,11.74,11.68h0c5.88,1.54,11.25-3.82,9.71-9.71h0c-1.5-5.73-5.96-10.21-11.68-11.74l-5.02-1.35c-3.7-.99-7.08,2.39-6.09,6.09Z"/>
    <circle class="cls-3" cx="629.25" cy="117.39" r="13.88"/>
  </g>
  <g>
    <path class="cls-4" d="M229.82,121.78l2.6,4.5c2.96,5.13,2.95,11.45-.04,16.57h0c-3.07,5.25-10.66,5.25-13.73,0h0c-2.99-5.11-3-11.44-.04-16.57l2.6-4.5c1.91-3.32,6.7-3.32,8.61,0Z"/>
    <path class="cls-4" d="M229.82,106.86l2.6-4.5c2.96-5.13,2.95-11.45-.04-16.57h0c-3.07-5.25-10.66-5.25-13.73,0h0c-2.99,5.11-3,11.44-.04,16.57l2.6,4.5c1.91,3.32,6.7,3.32,8.61,0Z"/>
    <path class="cls-4" d="M218.06,119.03l-4.5,2.6c-5.13,2.96-11.45,2.95-16.57-.04h0c-5.25-3.07-5.25-10.66,0-13.73h0c5.11-2.99,11.44-3,16.57-.04l4.5,2.6c3.32,1.91,3.32,6.7,0,8.61Z"/>
    <path class="cls-4" d="M232.98,119.03l4.5,2.6c5.13,2.96,11.45,2.95,16.57-.04h0c5.25-3.07,5.25-10.66,0-13.73h0c-5.11-2.99-11.44-3-16.57-.04l-4.5,2.6c-3.32,1.91-3.32,6.7,0,8.61Z"/>
    <path class="cls-4" d="M224.12,122.64l-1.35,5.02c-1.53,5.72-6.02,10.18-11.74,11.68h0c-5.88,1.54-11.25-3.82-9.71-9.71h0c1.5-5.73,5.96-10.21,11.68-11.74l5.02-1.35c3.7-.99,7.08,2.39,6.09,6.09Z"/>
    <path class="cls-4" d="M234.67,112.09l5.02-1.35c5.72-1.53,10.18-6.02,11.68-11.74h0c1.54-5.88-3.82-11.25-9.71-9.71h0c-5.73,1.5-10.21,5.96-11.74,11.68l-1.35,5.02c-.99,3.7,2.39,7.08,6.09,6.09Z"/>
    <path class="cls-4" d="M217.93,113.56l-5.02-1.35c-5.72-1.53-10.18-6.02-11.68-11.74h0c-1.54-5.88,3.82-11.25,9.71-9.71h0c5.73,1.5,10.21,5.96,11.74,11.68l1.35,5.02c.99,3.7-2.39,7.08-6.09,6.09Z"/>
    <path class="cls-4" d="M228.48,124.11l1.35,5.02c1.53,5.72,6.02,10.18,11.74,11.68h0c5.88,1.54,11.25-3.82,9.71-9.71h0c-1.5-5.73-5.96-10.21-11.68-11.74l-5.02-1.35c-3.7-.99-7.08,2.39-6.09,6.09Z"/>
    <circle class="cls-3" cx="225.09" cy="114.32" r="13.88"/>
  </g>
  <g>
    <path class="cls-1" d="M165.7,68.65l1.38,2.39c1.57,2.72,1.56,6.07-.02,8.78h0c-1.63,2.79-5.65,2.79-7.28,0h0c-1.58-2.71-1.59-6.06-.02-8.78l1.38-2.39c1.02-1.76,3.55-1.76,4.57,0Z"/>
    <path class="cls-1" d="M165.7,60.73l1.38-2.39c1.57-2.72,1.56-6.07-.02-8.78h0c-1.63-2.79-5.65-2.79-7.28,0h0c-1.58,2.71-1.59,6.06-.02,8.78l1.38,2.39c1.02,1.76,3.55,1.76,4.57,0Z"/>
    <path class="cls-1" d="M159.46,67.19l-2.39,1.38c-2.72,1.57-6.07,1.56-8.78-.02h0c-2.79-1.63-2.79-5.65,0-7.28h0c2.71-1.58,6.06-1.59,8.78-.02l2.39,1.38c1.76,1.02,1.76,3.55,0,4.57Z"/>
    <path class="cls-1" d="M167.37,67.19l2.39,1.38c2.72,1.57,6.07,1.56,8.78-.02h0c2.79-1.63,2.79-5.65,0-7.28h0c-2.71-1.58-6.06-1.59-8.78-.02l-2.39,1.38c-1.76,1.02-1.76,3.55,0,4.57Z"/>
    <path class="cls-1" d="M162.67,69.1l-.71,2.66c-.81,3.03-3.19,5.4-6.23,6.2h0c-3.12.82-5.97-2.03-5.15-5.15h0c.8-3.04,3.16-5.41,6.2-6.23l2.66-.71c1.96-.53,3.76,1.27,3.23,3.23Z"/>
    <path class="cls-1" d="M168.27,63.51l2.66-.71c3.03-.81,5.4-3.19,6.2-6.23h0c.82-3.12-2.03-5.97-5.15-5.15h0c-3.04.8-5.41,3.16-6.23,6.2l-.71,2.66c-.53,1.96,1.27,3.76,3.23,3.23Z"/>
    <path class="cls-1" d="M159.39,64.29l-2.66-.71c-3.03-.81-5.4-3.19-6.2-6.23h0c-.82-3.12,2.03-5.97,5.15-5.15h0c3.04.8,5.41,3.16,6.23,6.2l.71,2.66c.53,1.96-1.27,3.76-3.23,3.23Z"/>
    <path class="cls-1" d="M164.99,69.88l.71,2.66c.81,3.03,3.19,5.4,6.23,6.2h0c3.12.82,5.97-2.03,5.15-5.15h0c-.8-3.04-3.16-5.41-6.2-6.23l-2.66-.71c-1.96-.53-3.76,1.27-3.23,3.23Z"/>
    <circle class="cls-2" cx="163.19" cy="64.69" r="7.36"/>
  </g>
  <g>
    <path class="cls-4" d="M699.07,27.88l1.38,2.39c1.57,2.72,1.56,6.07-.02,8.78h0c-1.63,2.79-5.65,2.79-7.28,0h0c-1.58-2.71-1.59-6.06-.02-8.78l1.38-2.39c1.02-1.76,3.55-1.76,4.57,0Z"/>
    <path class="cls-4" d="M699.07,19.97l1.38-2.39c1.57-2.72,1.56-6.07-.02-8.78h0c-1.63-2.79-5.65-2.79-7.28,0h0c-1.58,2.71-1.59,6.06-.02,8.78l1.38,2.39c1.02,1.76,3.55,1.76,4.57,0Z"/>
    <path class="cls-4" d="M692.83,26.42l-2.39,1.38c-2.72,1.57-6.07,1.56-8.78-.02h0c-2.79-1.63-2.79-5.65,0-7.28h0c2.71-1.58,6.06-1.59,8.78-.02l2.39,1.38c1.76,1.02,1.76,3.55,0,4.57Z"/>
    <path class="cls-4" d="M700.74,26.42l2.39,1.38c2.72,1.57,6.07,1.56,8.78-.02h0c2.79-1.63,2.79-5.65,0-7.28h0c-2.71-1.58-6.06-1.59-8.78-.02l-2.39,1.38c-1.76,1.02-1.76,3.55,0,4.57Z"/>
    <path class="cls-4" d="M696.04,28.34l-.71,2.66c-.81,3.03-3.19,5.4-6.23,6.2h0c-3.12.82-5.97-2.03-5.15-5.15h0c.8-3.04,3.16-5.41,6.2-6.23l2.66-.71c1.96-.53,3.76,1.27,3.23,3.23Z"/>
    <path class="cls-4" d="M701.63,22.74l2.66-.71c3.03-.81,5.4-3.19,6.2-6.23h0c.82-3.12-2.03-5.97-5.15-5.15h0c-3.04.8-5.41,3.16-6.23,6.2l-.71,2.66c-.53,1.96,1.27,3.76,3.23,3.23Z"/>
    <path class="cls-4" d="M692.76,23.52l-2.66-.71c-3.03-.81-5.4-3.19-6.2-6.23h0c-.82-3.12,2.03-5.97,5.15-5.15h0c3.04.8,5.41,3.16,6.23,6.2l.71,2.66c.53,1.96-1.27,3.76-3.23,3.23Z"/>
    <path class="cls-4" d="M698.36,29.12l.71,2.66c.81,3.03,3.19,5.4,6.23,6.2h0c3.12.82,5.97-2.03,5.15-5.15h0c-.8-3.04-3.16-5.41-6.2-6.23l-2.66-.71c-1.96-.53-3.76,1.27-3.23,3.23Z"/>
    <circle class="cls-3" cx="696.56" cy="23.92" r="7.36"/>
  </g>
  <g>
    <path class="cls-1" d="M421.31,131.65l1.38,2.39c1.57,2.72,1.56,6.07-.02,8.78h0c-1.63,2.79-5.65,2.79-7.28,0h0c-1.58-2.71-1.59-6.06-.02-8.78l1.38-2.39c1.02-1.76,3.55-1.76,4.57,0Z"/>
    <path class="cls-1" d="M421.31,123.74l1.38-2.39c1.57-2.72,1.56-6.07-.02-8.78h0c-1.63-2.79-5.65-2.79-7.28,0h0c-1.58,2.71-1.59,6.06-.02,8.78l1.38,2.39c1.02,1.76,3.55,1.76,4.57,0Z"/>
    <path class="cls-1" d="M415.07,130.2l-2.39,1.38c-2.72,1.57-6.07,1.56-8.78-.02h0c-2.79-1.63-2.79-5.65,0-7.28h0c2.71-1.58,6.06-1.59,8.78-.02l2.39,1.38c1.76,1.02,1.76,3.55,0,4.57Z"/>
    <path class="cls-1" d="M422.98,130.2l2.39,1.38c2.72,1.57,6.07,1.56,8.78-.02h0c2.79-1.63,2.79-5.65,0-7.28h0c-2.71-1.58-6.06-1.59-8.78-.02l-2.39,1.38c-1.76,1.02-1.76,3.55,0,4.57Z"/>
    <path class="cls-1" d="M418.28,132.11l-.71,2.66c-.81,3.03-3.19,5.4-6.23,6.2h0c-3.12.82-5.97-2.03-5.15-5.15h0c.8-3.04,3.16-5.41,6.2-6.23l2.66-.71c1.96-.53,3.76,1.27,3.23,3.23Z"/>
    <path class="cls-1" d="M423.88,126.52l2.66-.71c3.03-.81,5.4-3.19,6.2-6.23h0c.82-3.12-2.03-5.97-5.15-5.15h0c-3.04.8-5.41,3.16-6.23,6.2l-.71,2.66c-.53,1.96,1.27,3.76,3.23,3.23Z"/>
    <path class="cls-1" d="M415,127.3l-2.66-.71c-3.03-.81-5.4-3.19-6.2-6.23h0c-.82-3.12,2.03-5.97,5.15-5.15h0c3.04.8,5.41,3.16,6.23,6.2l.71,2.66c.53,1.96-1.27,3.76-3.23,3.23Z"/>
    <path class="cls-1" d="M420.6,132.89l.71,2.66c.81,3.03,3.19,5.4,6.23,6.2h0c3.12.82,5.97-2.03,5.15-5.15h0c-.8-3.04-3.16-5.41-6.2-6.23l-2.66-.71c-1.96-.53-3.76,1.27-3.23,3.23Z"/>
    <circle class="cls-2" cx="418.8" cy="127.7" r="7.36"/>
  </g>
</svg>