<?xml version="1.0" encoding="UTF-8"?>
<svg id="Layer_1" xmlns="http://www.w3.org/2000/svg" viewBox="0 0 885.08 178.85">
  <defs>
    <style>
      .cls-1 {
        fill: #8670b2;
      }

      .cls-2 {
        fill: #4ca046;
      }

      .cls-3 {
        fill: #fff;
      }

      .cls-4 {
        fill: #68479c;
      }

      .cls-5 {
        fill: #4783b5;
      }

      .cls-6 {
        fill: #f2758c;
      }

      .cls-7 {
        fill: #f8b4c0;
      }

      .cls-8 {
        fill: #407f44;
      }
    </style>
  </defs>
  <ellipse class="cls-8" cx="818.67" cy="41.42" rx="66.41" ry="23.28"/>
  <ellipse class="cls-5" cx="819.75" cy="49.73" rx="49.9" ry="11.16"/>
  <g>
    <path class="cls-7" d="M65.58,128.39l4.64,8.03c5.28,9.15,5.25,20.42-.08,29.54h0c-5.47,9.37-19.01,9.37-24.48,0h0c-5.33-9.12-5.36-20.39-.08-29.54l4.64-8.03c3.41-5.91,11.95-5.91,15.36,0Z"/>
    <path class="cls-7" d="M65.58,101.78l4.64-8.03c5.28-9.15,5.25-20.42-.08-29.54h0c-5.47-9.37-19.01-9.37-24.48,0h0c-5.33,9.12-5.36,20.39-.08,29.54l4.64,8.03c3.41,5.91,11.95,5.91,15.36,0Z"/>
    <path class="cls-7" d="M44.59,123.49l-8.03,4.64c-9.15,5.28-20.42,5.25-29.54-.08h0c-9.37-5.47-9.37-19.01,0-24.48h0c9.12-5.33,20.39-5.36,29.54-.08l8.03,4.64c5.91,3.41,5.91,11.95,0,15.36Z"/>
    <path class="cls-7" d="M71.2,123.49l8.03,4.64c9.15,5.28,20.42,5.25,29.54-.08h0c9.37-5.47,9.37-19.01,0-24.48h0c-9.12-5.33-20.39-5.36-29.54-.08l-8.03,4.64c-5.91,3.41-5.91,11.95,0,15.36Z"/>
    <path class="cls-7" d="M55.4,129.92l-2.4,8.96c-2.73,10.2-10.73,18.15-20.94,20.83h0c-10.49,2.75-20.06-6.82-17.31-17.31h0c2.68-10.22,10.63-18.21,20.83-20.94l8.96-2.4c6.59-1.77,12.63,4.27,10.86,10.86Z"/>
    <path class="cls-7" d="M74.21,111.11l8.96-2.4c10.2-2.73,18.15-10.73,20.83-20.94h0c2.75-10.49-6.82-20.06-17.31-17.31h0c-10.22,2.68-18.21,10.63-20.94,20.83l-2.4,8.96c-1.77,6.59,4.27,12.63,10.86,10.86Z"/>
    <path class="cls-7" d="M44.37,113.73l-8.96-2.4c-10.2-2.73-18.15-10.73-20.83-20.94h0c-2.75-10.49,6.82-20.06,17.31-17.31h0c10.22,2.68,18.21,10.63,20.94,20.83l2.4,8.96c1.77,6.59-4.27,12.63-10.86,10.86Z"/>
    <path class="cls-7" d="M63.18,132.54l2.4,8.96c2.73,10.2,10.73,18.15,20.94,20.83h0c10.49,2.75,20.06-6.82,17.31-17.31h0c-2.68-10.22-10.63-18.21-20.83-20.94l-8.96-2.4c-6.59-1.77-12.63,4.27-10.86,10.86Z"/>
    <circle class="cls-6" cx="57.13" cy="115.08" r="24.74"/>
  </g>
  <g>
    <path class="cls-1" d="M274.45,71.2l4.64,8.03c5.28,9.15,5.25,20.42-.08,29.54h0c-5.47,9.37-19.01,9.37-24.48,0h0c-5.33-9.12-5.36-20.39-.08-29.54l4.64-8.03c3.41-5.91,11.95-5.91,15.36,0Z"/>
    <path class="cls-1" d="M274.45,44.59l4.64-8.03c5.28-9.15,5.25-20.42-.08-29.54h0c-5.47-9.37-19.01-9.37-24.48,0h0c-5.33,9.12-5.36,20.39-.08,29.54l4.64,8.03c3.41,5.91,11.95,5.91,15.36,0Z"/>
    <path class="cls-1" d="M253.47,66.3l-8.03,4.64c-9.15,5.28-20.42,5.25-29.54-.08h0c-9.37-5.47-9.37-19.01,0-24.48h0c9.12-5.33,20.39-5.36,29.54-.08l8.03,4.64c5.91,3.41,5.91,11.95,0,15.36Z"/>
    <path class="cls-1" d="M280.07,66.3l8.03,4.64c9.15,5.28,20.42,5.25,29.54-.08h0c9.37-5.47,9.37-19.01,0-24.48h0c-9.12-5.33-20.39-5.36-29.54-.08l-8.03,4.64c-5.91,3.41-5.91,11.95,0,15.36Z"/>
    <path class="cls-1" d="M264.27,72.73l-2.4,8.96c-2.73,10.2-10.73,18.15-20.94,20.83h0c-10.49,2.75-20.06-6.82-17.31-17.31h0c2.68-10.22,10.63-18.21,20.83-20.94l8.96-2.4c6.59-1.77,12.63,4.27,10.86,10.86Z"/>
    <path class="cls-1" d="M283.08,53.92l8.96-2.4c10.2-2.73,18.15-10.73,20.83-20.94h0c2.75-10.49-6.82-20.06-17.31-17.31h0c-10.22,2.68-18.21,10.63-20.94,20.83l-2.4,8.96c-1.77,6.59,4.27,12.63,10.86,10.86Z"/>
    <path class="cls-1" d="M253.24,56.54l-8.96-2.4c-10.2-2.73-18.15-10.73-20.83-20.94h0c-2.75-10.49,6.82-20.06,17.31-17.31h0c10.22,2.68,18.21,10.63,20.94,20.83l2.4,8.96c1.77,6.59-4.27,12.63-10.86,10.86Z"/>
    <path class="cls-1" d="M272.06,75.35l2.4,8.96c2.73,10.2,10.73,18.15,20.94,20.83h0c10.49,2.75,20.06-6.82,17.31-17.31h0c-2.68-10.22-10.63-18.21-20.83-20.94l-8.96-2.4c-6.59-1.77-12.63,4.27-10.86,10.86Z"/>
    <circle class="cls-4" cx="266" cy="57.9" r="24.74"/>
  </g>
  <g>
    <path class="cls-7" d="M442.19,121.25l4.64,8.03c5.28,9.15,5.25,20.42-.08,29.54h0c-5.47,9.37-19.01,9.37-24.48,0h0c-5.33-9.12-5.36-20.39-.08-29.54l4.64-8.03c3.41-5.91,11.95-5.91,15.36,0Z"/>
    <path class="cls-7" d="M442.19,94.65l4.64-8.03c5.28-9.15,5.25-20.42-.08-29.54h0c-5.47-9.37-19.01-9.37-24.48,0h0c-5.33,9.12-5.36,20.39-.08,29.54l4.64,8.03c3.41,5.91,11.95,5.91,15.36,0Z"/>
    <path class="cls-7" d="M421.21,116.35l-8.03,4.64c-9.15,5.28-20.42,5.25-29.54-.08h0c-9.37-5.47-9.37-19.01,0-24.48h0c9.12-5.33,20.39-5.36,29.54-.08l8.03,4.64c5.91,3.41,5.91,11.95,0,15.36Z"/>
    <path class="cls-7" d="M447.81,116.35l8.03,4.64c9.15,5.28,20.42,5.25,29.54-.08h0c9.37-5.47,9.37-19.01,0-24.48h0c-9.12-5.33-20.39-5.36-29.54-.08l-8.03,4.64c-5.91,3.41-5.91,11.95,0,15.36Z"/>
    <path class="cls-7" d="M432.01,122.79l-2.4,8.96c-2.73,10.2-10.73,18.15-20.94,20.83h0c-10.49,2.75-20.06-6.82-17.31-17.31h0c2.68-10.22,10.63-18.21,20.83-20.94l8.96-2.4c6.59-1.77,12.63,4.27,10.86,10.86Z"/>
    <path class="cls-7" d="M450.82,103.97l8.96-2.4c10.2-2.73,18.15-10.73,20.83-20.94h0c2.75-10.49-6.82-20.06-17.31-17.31h0c-10.22,2.68-18.21,10.63-20.94,20.83l-2.4,8.96c-1.77,6.59,4.27,12.63,10.86,10.86Z"/>
    <path class="cls-7" d="M420.99,106.6l-8.96-2.4c-10.2-2.73-18.15-10.73-20.83-20.94h0c-2.75-10.49,6.82-20.06,17.31-17.31h0c10.22,2.68,18.21,10.63,20.94,20.83l2.4,8.96c1.77,6.59-4.27,12.63-10.86,10.86Z"/>
    <path class="cls-7" d="M439.8,125.41l2.4,8.96c2.73,10.2,10.73,18.15,20.94,20.83h0c10.49,2.75,20.06-6.82,17.31-17.31h0c-2.68-10.22-10.63-18.21-20.83-20.94l-8.96-2.4c-6.59-1.77-12.63,4.27-10.86,10.86Z"/>
    <circle class="cls-6" cx="433.75" cy="107.95" r="24.74"/>
  </g>
  <g>
    <path class="cls-1" d="M580.91,75.31l4.64,8.03c5.28,9.15,5.25,20.42-.08,29.54h0c-5.47,9.37-19.01,9.37-24.48,0h0c-5.33-9.12-5.36-20.39-.08-29.54l4.64-8.03c3.41-5.91,11.95-5.91,15.36,0Z"/>
    <path class="cls-1" d="M580.91,48.71l4.64-8.03c5.28-9.15,5.25-20.42-.08-29.54h0c-5.47-9.37-19.01-9.37-24.48,0h0c-5.33,9.12-5.36,20.39-.08,29.54l4.64,8.03c3.41,5.91,11.95,5.91,15.36,0Z"/>
    <path class="cls-1" d="M559.93,70.41l-8.03,4.64c-9.15,5.28-20.42,5.25-29.54-.08h0c-9.37-5.47-9.37-19.01,0-24.48h0c9.12-5.33,20.39-5.36,29.54-.08l8.03,4.64c5.91,3.41,5.91,11.95,0,15.36Z"/>
    <path class="cls-1" d="M586.53,70.41l8.03,4.64c9.15,5.28,20.42,5.25,29.54-.08h0c9.37-5.47,9.37-19.01,0-24.48h0c-9.12-5.33-20.39-5.36-29.54-.08l-8.03,4.64c-5.91,3.41-5.91,11.95,0,15.36Z"/>
    <path class="cls-1" d="M570.73,76.85l-2.4,8.96c-2.73,10.2-10.73,18.15-20.94,20.83h0c-10.49,2.75-20.06-6.82-17.31-17.31h0c2.68-10.22,10.63-18.21,20.83-20.94l8.96-2.4c6.59-1.77,12.63,4.27,10.86,10.86Z"/>
    <path class="cls-1" d="M589.54,58.04l8.96-2.4c10.2-2.73,18.15-10.73,20.83-20.94h0c2.75-10.49-6.82-20.06-17.31-17.31h0c-10.22,2.68-18.21,10.63-20.94,20.83l-2.4,8.96c-1.77,6.59,4.27,12.63,10.86,10.86Z"/>
    <path class="cls-1" d="M559.7,60.66l-8.96-2.4c-10.2-2.73-18.15-10.73-20.83-20.94h0c-2.75-10.49,6.82-20.06,17.31-17.31h0c10.22,2.68,18.21,10.63,20.94,20.83l2.4,8.96c1.77,6.59-4.27,12.63-10.86,10.86Z"/>
    <path class="cls-1" d="M578.51,79.47l2.4,8.96c2.73,10.2,10.73,18.15,20.94,20.83h0c10.49,2.75,20.06-6.82,17.31-17.31h0c-2.68-10.22-10.63-18.21-20.83-20.94l-8.96-2.4c-6.59-1.77-12.63,4.27-10.86,10.86Z"/>
    <circle class="cls-4" cx="572.46" cy="62.01" r="24.74"/>
  </g>
  <g>
    <path class="cls-7" d="M533.99,153.84l2.6,4.5c2.96,5.13,2.95,11.45-.04,16.57h0c-3.07,5.25-10.66,5.25-13.73,0h0c-2.99-5.11-3-11.44-.04-16.57l2.6-4.5c1.91-3.32,6.7-3.32,8.61,0Z"/>
    <path class="cls-7" d="M533.99,138.92l2.6-4.5c2.96-5.13,2.95-11.45-.04-16.57h0c-3.07-5.25-10.66-5.25-13.73,0h0c-2.99,5.11-3,11.44-.04,16.57l2.6,4.5c1.91,3.32,6.7,3.32,8.61,0Z"/>
    <path class="cls-7" d="M522.22,151.09l-4.5,2.6c-5.13,2.96-11.45,2.95-16.57-.04h0c-5.25-3.07-5.25-10.66,0-13.73h0c5.11-2.99,11.44-3,16.57-.04l4.5,2.6c3.32,1.91,3.32,6.7,0,8.61Z"/>
    <path class="cls-7" d="M537.14,151.09l4.5,2.6c5.13,2.96,11.45,2.95,16.57-.04h0c5.25-3.07,5.25-10.66,0-13.73h0c-5.11-2.99-11.44-3-16.57-.04l-4.5,2.6c-3.32,1.91-3.32,6.7,0,8.61Z"/>
    <path class="cls-7" d="M528.28,154.7l-1.35,5.02c-1.53,5.72-6.02,10.18-11.74,11.68h0c-5.88,1.54-11.25-3.82-9.71-9.71h0c1.5-5.73,5.96-10.21,11.68-11.74l5.02-1.35c3.7-.99,7.08,2.39,6.09,6.09Z"/>
    <path class="cls-7" d="M538.83,144.15l5.02-1.35c5.72-1.53,10.18-6.02,11.68-11.74h0c1.54-5.88-3.82-11.25-9.71-9.71h0c-5.73,1.5-10.21,5.96-11.74,11.68l-1.35,5.02c-.99,3.7,2.39,7.08,6.09,6.09Z"/>
    <path class="cls-7" d="M522.1,145.62l-5.02-1.35c-5.72-1.53-10.18-6.02-11.68-11.74h0c-1.54-5.88,3.82-11.25,9.71-9.71h0c5.73,1.5,10.21,5.96,11.74,11.68l1.35,5.02c.99,3.7-2.39,7.08-6.09,6.09Z"/>
    <path class="cls-7" d="M532.65,156.17l1.35,5.02c1.53,5.72,6.02,10.18,11.74,11.68h0c5.88,1.54,11.25-3.82,9.71-9.71h0c-1.5-5.73-5.96-10.21-11.68-11.74l-5.02-1.35c-3.7-.99-7.08,2.39-6.09,6.09Z"/>
    <circle class="cls-6" cx="529.25" cy="146.38" r="13.88"/>
  </g>
  <g>
    <path class="cls-7" d="M162.67,147.28l2.6,4.5c2.96,5.13,2.95,11.45-.04,16.57h0c-3.07,5.25-10.66,5.25-13.73,0h0c-2.99-5.11-3-11.44-.04-16.57l2.6-4.5c1.91-3.32,6.7-3.32,8.61,0Z"/>
    <path class="cls-7" d="M162.67,132.37l2.6-4.5c2.96-5.13,2.95-11.45-.04-16.57h0c-3.07-5.25-10.66-5.25-13.73,0h0c-2.99,5.11-3,11.44-.04,16.57l2.6,4.5c1.91,3.32,6.7,3.32,8.61,0Z"/>
    <path class="cls-7" d="M150.9,144.54l-4.5,2.6c-5.13,2.96-11.45,2.95-16.57-.04h0c-5.25-3.07-5.25-10.66,0-13.73h0c5.11-2.99,11.44-3,16.57-.04l4.5,2.6c3.32,1.91,3.32,6.7,0,8.61Z"/>
    <path class="cls-7" d="M165.82,144.54l4.5,2.6c5.13,2.96,11.45,2.95,16.57-.04h0c5.25-3.07,5.25-10.66,0-13.73h0c-5.11-2.99-11.44-3-16.57-.04l-4.5,2.6c-3.32,1.91-3.32,6.7,0,8.61Z"/>
    <path class="cls-7" d="M156.96,148.15l-1.35,5.02c-1.53,5.72-6.02,10.18-11.74,11.68h0c-5.88,1.54-11.25-3.82-9.71-9.71h0c1.5-5.73,5.96-10.21,11.68-11.74l5.02-1.35c3.7-.99,7.08,2.39,6.09,6.09Z"/>
    <path class="cls-7" d="M167.51,137.6l5.02-1.35c5.72-1.53,10.18-6.02,11.68-11.74h0c1.54-5.88-3.82-11.25-9.71-9.71h0c-5.73,1.5-10.21,5.96-11.74,11.68l-1.35,5.02c-.99,3.7,2.39,7.08,6.09,6.09Z"/>
    <path class="cls-7" d="M150.77,139.07l-5.02-1.35c-5.72-1.53-10.18-6.02-11.68-11.74h0c-1.54-5.88,3.82-11.25,9.71-9.71h0c5.73,1.5,10.21,5.96,11.74,11.68l1.35,5.02c.99,3.7-2.39,7.08-6.09,6.09Z"/>
    <path class="cls-7" d="M161.32,149.62l1.35,5.02c1.53,5.72,6.02,10.18,11.74,11.68h0c5.88,1.54,11.25-3.82,9.71-9.71h0c-1.5-5.73-5.96-10.21-11.68-11.74l-5.02-1.35c-3.7-.99-7.08,2.39-6.09,6.09Z"/>
    <circle class="cls-6" cx="157.93" cy="139.82" r="13.88"/>
  </g>
  <g>
    <path class="cls-1" d="M113.41,50.37l1.38,2.39c1.57,2.72,1.56,6.07-.02,8.78h0c-1.63,2.79-5.65,2.79-7.28,0h0c-1.58-2.71-1.59-6.06-.02-8.78l1.38-2.39c1.02-1.76,3.55-1.76,4.57,0Z"/>
    <path class="cls-1" d="M113.41,42.46l1.38-2.39c1.57-2.72,1.56-6.07-.02-8.78h0c-1.63-2.79-5.65-2.79-7.28,0h0c-1.58,2.71-1.59,6.06-.02,8.78l1.38,2.39c1.02,1.76,3.55,1.76,4.57,0Z"/>
    <path class="cls-1" d="M107.17,48.92l-2.39,1.38c-2.72,1.57-6.07,1.56-8.78-.02h0c-2.79-1.63-2.79-5.65,0-7.28h0c2.71-1.58,6.06-1.59,8.78-.02l2.39,1.38c1.76,1.02,1.76,3.55,0,4.57Z"/>
    <path class="cls-1" d="M115.09,48.92l2.39,1.38c2.72,1.57,6.07,1.56,8.78-.02h0c2.79-1.63,2.79-5.65,0-7.28h0c-2.71-1.58-6.06-1.59-8.78-.02l-2.39,1.38c-1.76,1.02-1.76,3.55,0,4.57Z"/>
    <path class="cls-1" d="M110.39,50.83l-.71,2.66c-.81,3.03-3.19,5.4-6.23,6.2h0c-3.12.82-5.97-2.03-5.15-5.15h0c.8-3.04,3.16-5.41,6.2-6.23l2.66-.71c1.96-.53,3.76,1.27,3.23,3.23Z"/>
    <path class="cls-1" d="M115.98,45.24l2.66-.71c3.03-.81,5.4-3.19,6.2-6.23h0c.82-3.12-2.03-5.97-5.15-5.15h0c-3.04.8-5.41,3.16-6.23,6.2l-.71,2.66c-.53,1.96,1.27,3.76,3.23,3.23Z"/>
    <path class="cls-1" d="M107.11,46.02l-2.66-.71c-3.03-.81-5.4-3.19-6.2-6.23h0c-.82-3.12,2.03-5.97,5.15-5.15h0c3.04.8,5.41,3.16,6.23,6.2l.71,2.66c.53,1.96-1.27,3.76-3.23,3.23Z"/>
    <path class="cls-1" d="M112.7,51.61l.71,2.66c.81,3.03,3.19,5.4,6.23,6.2h0c3.12.82,5.97-2.03,5.15-5.15h0c-.8-3.04-3.16-5.41-6.2-6.23l-2.66-.71c-1.96-.53-3.76,1.27-3.23,3.23Z"/>
    <circle class="cls-4" cx="110.9" cy="46.42" r="7.36"/>
  </g>
  <g>
    <path class="cls-7" d="M480.79,42.8l1.38,2.39c1.57,2.72,1.56,6.07-.02,8.78h0c-1.63,2.79-5.65,2.79-7.28,0h0c-1.58-2.71-1.59-6.06-.02-8.78l1.38-2.39c1.02-1.76,3.55-1.76,4.57,0Z"/>
    <path class="cls-7" d="M480.79,34.89l1.38-2.39c1.57-2.72,1.56-6.07-.02-8.78h0c-1.63-2.79-5.65-2.79-7.28,0h0c-1.58,2.71-1.59,6.06-.02,8.78l1.38,2.39c1.02,1.76,3.55,1.76,4.57,0Z"/>
    <path class="cls-7" d="M474.55,41.34l-2.39,1.38c-2.72,1.57-6.07,1.56-8.78-.02h0c-2.79-1.63-2.79-5.65,0-7.28h0c2.71-1.58,6.06-1.59,8.78-.02l2.39,1.38c1.76,1.02,1.76,3.55,0,4.57Z"/>
    <path class="cls-7" d="M482.46,41.34l2.39,1.38c2.72,1.57,6.07,1.56,8.78-.02h0c2.79-1.63,2.79-5.65,0-7.28h0c-2.71-1.58-6.06-1.59-8.78-.02l-2.39,1.38c-1.76,1.02-1.76,3.55,0,4.57Z"/>
    <path class="cls-7" d="M477.76,43.26l-.71,2.66c-.81,3.03-3.19,5.4-6.23,6.2h0c-3.12.82-5.97-2.03-5.15-5.15h0c.8-3.04,3.16-5.41,6.2-6.23l2.66-.71c1.96-.53,3.76,1.27,3.23,3.23Z"/>
    <path class="cls-7" d="M483.36,37.66l2.66-.71c3.03-.81,5.4-3.19,6.2-6.23h0c.82-3.12-2.03-5.97-5.15-5.15h0c-3.04.8-5.41,3.16-6.23,6.2l-.71,2.66c-.53,1.96,1.27,3.76,3.23,3.23Z"/>
    <path class="cls-7" d="M474.48,38.44l-2.66-.71c-3.03-.81-5.4-3.19-6.2-6.23h0c-.82-3.12,2.03-5.97,5.15-5.15h0c3.04.8,5.41,3.16,6.23,6.2l.71,2.66c.53,1.96-1.27,3.76-3.23,3.23Z"/>
    <path class="cls-7" d="M480.08,44.04l.71,2.66c.81,3.03,3.19,5.4,6.23,6.2h0c3.12.82,5.97-2.03,5.15-5.15h0c-.8-3.04-3.16-5.41-6.2-6.23l-2.66-.71c-1.96-.53-3.76,1.27-3.23,3.23Z"/>
    <circle class="cls-6" cx="478.28" cy="38.84" r="7.36"/>
  </g>
  <g>
    <path class="cls-1" d="M330.23,129.91l1.38,2.39c1.57,2.72,1.56,6.07-.02,8.78h0c-1.63,2.79-5.65,2.79-7.28,0h0c-1.58-2.71-1.59-6.06-.02-8.78l1.38-2.39c1.02-1.76,3.55-1.76,4.57,0Z"/>
    <path class="cls-1" d="M330.23,122l1.38-2.39c1.57-2.72,1.56-6.07-.02-8.78h0c-1.63-2.79-5.65-2.79-7.28,0h0c-1.58,2.71-1.59,6.06-.02,8.78l1.38,2.39c1.02,1.76,3.55,1.76,4.57,0Z"/>
    <path class="cls-1" d="M323.99,128.46l-2.39,1.38c-2.72,1.57-6.07,1.56-8.78-.02h0c-2.79-1.63-2.79-5.65,0-7.28h0c2.71-1.58,6.06-1.59,8.78-.02l2.39,1.38c1.76,1.02,1.76,3.55,0,4.57Z"/>
    <path class="cls-1" d="M331.9,128.46l2.39,1.38c2.72,1.57,6.07,1.56,8.78-.02h0c2.79-1.63,2.79-5.65,0-7.28h0c-2.71-1.58-6.06-1.59-8.78-.02l-2.39,1.38c-1.76,1.02-1.76,3.55,0,4.57Z"/>
    <path class="cls-1" d="M327.2,130.37l-.71,2.66c-.81,3.03-3.19,5.4-6.23,6.2h0c-3.12.82-5.97-2.03-5.15-5.15h0c.8-3.04,3.16-5.41,6.2-6.23l2.66-.71c1.96-.53,3.76,1.27,3.23,3.23Z"/>
    <path class="cls-1" d="M332.8,124.77l2.66-.71c3.03-.81,5.4-3.19,6.2-6.23h0c.82-3.12-2.03-5.97-5.15-5.15h0c-3.04.8-5.41,3.16-6.23,6.2l-.71,2.66c-.53,1.96,1.27,3.76,3.23,3.23Z"/>
    <path class="cls-1" d="M323.92,125.55l-2.66-.71c-3.03-.81-5.4-3.19-6.2-6.23h0c-.82-3.12,2.03-5.97,5.15-5.15h0c3.04.8,5.41,3.16,6.23,6.2l.71,2.66c.53,1.96-1.27,3.76-3.23,3.23Z"/>
    <path class="cls-1" d="M329.52,131.15l.71,2.66c.81,3.03,3.19,5.4,6.23,6.2h0c3.12.82,5.97-2.03,5.15-5.15h0c-.8-3.04-3.16-5.41-6.2-6.23l-2.66-.71c-1.96-.53-3.76,1.27-3.23,3.23Z"/>
    <circle class="cls-4" cx="327.72" cy="125.96" r="7.36"/>
  </g>
  <path class="cls-2" d="M818.67,64.7c-36.68,0-66.41-10.42-66.41-23.28v131.04h132.81V41.42c0,12.86-29.73,23.28-66.41,23.28Z"/>
  <rect class="cls-2" x="678.41" y="56.08" width="88.63" height="28.19" transform="translate(17.3 -101.95) rotate(8.17)"/>
  <circle class="cls-8" cx="675.6" cy="63.41" r="16.16"/>
  <circle class="cls-3" cx="675.6" cy="52.43" r="3"/>
  <circle class="cls-3" cx="675.01" cy="75.62" r="3"/>
  <circle class="cls-3" cx="687.15" cy="62.82" r="3"/>
  <circle class="cls-3" cx="663.53" cy="62.82" r="3"/>
  <circle class="cls-3" cx="667.53" cy="55.63" r="3"/>
  <circle class="cls-3" cx="683.82" cy="55.43" r="3"/>
  <circle class="cls-3" cx="682.77" cy="72.03" r="3"/>
  <circle class="cls-3" cx="666.53" cy="71.84" r="3"/>
  <circle class="cls-3" cx="672.6" cy="60.13" r="3"/>
  <circle class="cls-3" cx="680.33" cy="62.67" r="3"/>
  <circle class="cls-3" cx="672.86" cy="67.87" r="3"/>
  <ellipse class="cls-3" cx="802.23" cy="108.43" rx="26.15" ry="14.64"/>
  <ellipse class="cls-3" cx="824.7" cy="101.55" rx="26.15" ry="14.64"/>
  <ellipse class="cls-3" cx="836.12" cy="112.79" rx="26.15" ry="14.64"/>
  <path class="cls-3" d="M801.06,131.28l1.96,3.4c.73,1.27.73,2.83-.01,4.09h0c-.87,1.49-3.03,1.49-3.91,0h0c-.74-1.26-.74-2.82-.01-4.09l1.96-3.4Z"/>
  <path class="cls-3" d="M839.54,138.66l1.96,3.4c.73,1.27.73,2.83-.01,4.09h0c-.87,1.49-3.03,1.49-3.91,0h0c-.74-1.26-.74-2.82-.01-4.09l1.96-3.4Z"/>
  <path class="cls-3" d="M822.19,128.72l1.96,3.4c.73,1.27.73,2.83-.01,4.09h0c-.87,1.49-3.03,1.49-3.91,0h0c-.74-1.26-.74-2.82-.01-4.09l1.96-3.4Z"/>
  <path class="cls-3" d="M811.47,142.21l1.96,3.4c.73,1.27.73,2.83-.01,4.09h0c-.87,1.49-3.03,1.49-3.91,0h0c-.74-1.26-.74-2.82-.01-4.09l1.96-3.4Z"/>
  <path class="cls-3" d="M830.15,146.52l1.96,3.4c.73,1.27.73,2.83-.01,4.09h0c-.87,1.49-3.03,1.49-3.91,0h0c-.74-1.26-.74-2.82-.01-4.09l1.96-3.4Z"/>
  <path class="cls-3" d="M850.86,128.13l1.96,3.4c.73,1.27.73,2.83-.01,4.09h0c-.87,1.49-3.03,1.49-3.91,0h0c-.74-1.26-.74-2.82-.01-4.09l1.96-3.4Z"/>
  <path class="cls-3" d="M848.35,149.88l1.96,3.4c.73,1.27.73,2.83-.01,4.09h0c-.87,1.49-3.03,1.49-3.91,0h0c-.74-1.26-.74-2.82-.01-4.09l1.96-3.4Z"/>
  <path class="cls-3" d="M802.23,151.92l1.96,3.4c.73,1.27.73,2.83-.01,4.09h0c-.87,1.49-3.03,1.49-3.91,0h0c-.74-1.26-.74-2.82-.01-4.09l1.96-3.4Z"/>
</svg>