<?xml version="1.0" encoding="UTF-8"?>
<svg id="Layer_1" data-name="Layer 1" xmlns="http://www.w3.org/2000/svg" viewBox="0 0 171.94 171.94">
  <defs>
    <style>
      .cls-1 {
        fill: #f2758c;
      }

      .cls-1, .cls-2 {
        stroke-width: 0px;
      }

      .cls-2 {
        fill: #f8b4c0;
      }
    </style>
  </defs>
  <path class="cls-2" d="m107.14,122.64l1.87,3.24c5.88,10.18,5.85,22.73-.09,32.88h0c-10.26,17.57-35.65,17.57-45.92,0h0c-5.93-10.15-5.96-22.7-.09-32.88l1.87-3.24c9.41-16.3,32.94-16.3,42.35,0Z"/>
  <path class="cls-2" d="m107.14,49.3l1.87-3.24c5.88-10.18,5.85-22.73-.09-32.88h0c-10.26-17.57-35.65-17.57-45.92,0h0c-5.93,10.15-5.96,22.7-.09,32.88l1.87,3.24c9.41,16.3,32.94,16.3,42.35,0Z"/>
  <path class="cls-2" d="m49.3,108.27l-3.24,1.87c-10.18,5.88-22.73,5.85-32.88-.09h0c-17.57-10.26-17.57-35.65,0-45.92h0c10.15-5.93,22.7-5.96,32.88-.09l3.24,1.87c16.3,9.41,16.3,32.94,0,42.35Z"/>
  <path class="cls-2" d="m122.64,108.27l3.24,1.87c10.18,5.88,22.73,5.85,32.88-.09h0c17.57-10.26,17.57-35.65,0-45.92h0c-10.15-5.93-22.7-5.96-32.88-.09l-3.24,1.87c-16.3,9.41-16.3,32.94,0,42.35Z"/>
  <path class="cls-2" d="m77.31,126.87l-.97,3.61c-3.04,11.36-11.94,20.21-23.31,23.19h0c-19.68,5.16-37.63-12.79-32.47-32.47h0c2.98-11.37,11.84-20.27,23.19-23.31l3.61-.97c18.18-4.87,34.82,11.76,29.94,29.94Z"/>
  <path class="cls-2" d="m129.18,75.01l3.61-.97c11.36-3.04,20.21-11.94,23.19-23.31h0c5.16-19.68-12.79-37.63-32.47-32.47h0c-11.37,2.98-20.27,11.84-23.31,23.19l-.97,3.61c-4.87,18.18,11.76,34.82,29.94,29.94Z"/>
  <path class="cls-2" d="m47.11,79.1l-3.61-.97c-11.36-3.04-20.21-11.94-23.19-23.31h0c-5.16-19.68,12.79-37.63,32.47-32.47h0c11.37,2.98,20.27,11.84,23.31,23.19l.97,3.61c4.87,18.18-11.76,34.82-29.94,29.94Z"/>
  <path class="cls-2" d="m98.98,130.97l.97,3.61c3.04,11.36,11.94,20.21,23.31,23.19h0c19.68,5.16,37.63-12.79,32.47-32.47h0c-2.98-11.37-11.84-20.27-23.19-23.31l-3.61-.97c-18.18-4.87-34.82,11.76-29.94,29.94Z"/>
  <circle class="cls-1" cx="84.78" cy="85.97" r="38.61"/>
</svg>