<?xml version="1.0" encoding="UTF-8"?>
<svg id="Layer_1" data-name="Layer 1" xmlns="http://www.w3.org/2000/svg" viewBox="0 0 465.55 339.94">
  <defs>
    <style>
      .cls-1 {
        fill: #925545;
      }

      .cls-1, .cls-2, .cls-3 {
        stroke-width: 0px;
      }

      .cls-2 {
        fill: #4ca046;
      }

      .cls-3 {
        fill: #407f44;
      }
    </style>
  </defs>
  <path class="cls-2" d="m193.97,0s61.48,7.11,97.36,49.61c35.88,42.5,32.58,104.3,32.58,104.3h0S193.97,0,193.97,0Z"/>
  <path class="cls-3" d="m193.97,0s-3.3,61.8,32.58,104.3c35.88,42.5,97.36,49.61,97.36,49.61h0S193.97,0,193.97,0Z"/>
  <g>
    <path class="cls-2" d="m324.1,154.73s61.43-7.5,97.04-50.23C456.75,61.78,453.05,0,453.05,0h0s-128.95,154.73-128.95,154.73Z"/>
    <path class="cls-3" d="m324.1,154.73s-3.7-61.78,31.91-104.5C391.62,7.5,453.05,0,453.05,0h0s-128.95,154.73-128.95,154.73Z"/>
  </g>
  <path class="cls-1" d="m0,270.59s60.4-69.96,115.76-81.53c55.36-11.58,114.25,0,114.25,0,0,0,47.81,5.03,78.01-1.01,30.2-6.04,35.23,20.13,35.23,20.13,0,0,12.58,21.14-47.31,23.15-59.89,2.01-80.02,3.02-80.02,3.02,0,0,42.78,18.12,74.49,15.1,31.71-3.02,47.81-2.01,49.83-2.01s82.04-45.3,101.67-44.29,23.66,13.59,23.66,13.59l-108.71,75.5s-117.37,28.86-120.09,28.86-62.18.6-63.12.28c-2.34-.8-71.47,0-71.47,0,0,0-20.34-2.71-35.94,15.91S0,270.59,0,270.59Z"/>
</svg>