<?xml version="1.0" encoding="UTF-8"?>
<svg id="Layer_1" xmlns="http://www.w3.org/2000/svg" viewBox="0 0 313.33 382.71">
  <defs>
    <style>
      .cls-1 {
        fill: #4ca046;
      }

      .cls-2 {
        fill: #fff;
      }
    </style>
  </defs>
  <rect class="cls-1" width="313.33" height="382.71" rx="28.93" ry="28.93"/>
  <g>
    <g>
      <rect class="cls-2" x="111.07" y="98.27" width="34.97" height="27.19" transform="translate(-32.6 167.27) rotate(-60)"/>
      <path class="cls-2" d="M244.61,189.73l-1.72-55.93-11.36,7.03-33.4-53.95-7.78-7.74c-7.49-6.55-17.58-9.57-27.53-9.46-10.03.11-20.66,3.28-28.03,10.09l-9.28,10.15,8.4,4.85,15.15,8.75,2.85-3.84c2.15-2.89,5.51-4.63,9.11-4.7l3.4-.07c4.43-.09,8.54,2.34,10.58,6.28l33.4,53.95-13.1,8.11,49.29,26.48Z"/>
    </g>
    <g>
      <rect class="cls-2" x="250.05" y="211.23" width="27.19" height="34.97" transform="translate(-76.01 148.39) rotate(-27.64)"/>
      <path class="cls-2" d="M135.76,285.06l48.16,28.49.14-13.36,63.45.67,10.7-2.43c9.54-2.82,17.49-9.73,22.72-18.19,5.28-8.53,8.29-19.21,6.48-29.07l-3.61-13.28-8.59,4.5-15.5,8.11,1.72,4.46c1.29,3.36.96,7.13-.91,10.22l-1.76,2.91c-2.3,3.79-6.55,5.96-10.97,5.57l-63.45-.67.16-15.41-48.75,27.46Z"/>
    </g>
    <g>
      <rect class="cls-2" x="75.82" y="273.71" width="34.97" height="27.19" transform="translate(-14.44 5.1) rotate(-2.91)"/>
      <path class="cls-2" d="M95.63,147.57l-46.02,31.82,12.07,5.72-27.15,57.35-2.27,10.74c-1.43,9.85,1.52,19.96,7.01,28.25,5.54,8.36,13.98,15.56,23.69,18.05l13.57,2.28-.49-9.69-.89-17.47-4.77-.31c-3.6-.23-6.88-2.11-8.9-5.1l-1.91-2.82c-2.49-3.67-2.67-8.44-.47-12.29l27.15-57.35,13.92,6.59-4.55-55.77Z"/>
    </g>
  </g>
</svg>