<?xml version="1.0" encoding="UTF-8"?>
<svg id="Layer_1" xmlns="http://www.w3.org/2000/svg" viewBox="0 0 661.79 216.38">
  <defs>
    <style>
      .cls-1 {
        fill: #8670b2;
      }

      .cls-2 {
        fill: #4ca046;
      }

      .cls-3 {
        fill: #fff;
      }

      .cls-4 {
        fill: #68479c;
      }

      .cls-5 {
        fill: #4783b5;
      }

      .cls-6 {
        fill: #f2758c;
      }

      .cls-7 {
        fill: #f8b4c0;
      }

      .cls-8 {
        fill: #275e7c;
      }

      .cls-9 {
        fill: #407f44;
      }

      .cls-10 {
        fill: #40789e;
      }
    </style>
  </defs>
  <g>
    <path class="cls-7" d="M541.98,141.46l3.18-1.83c5.87-3.39,13.11-3.37,18.97.05h0c8.49,4.96,8.49,17.24,0,22.2h0c-5.85,3.42-13.09,3.44-18.97.05l-3.18-1.83c-7.17-4.14-7.17-14.49,0-18.63Z"/>
    <path class="cls-7" d="M509.7,141.46l-3.18-1.83c-5.87-3.39-13.11-3.37-18.97.05h0c-8.49,4.96-8.49,17.24,0,22.2h0c5.85,3.42,13.09,3.44,18.97.05l3.18-1.83c7.17-4.14,7.17-14.49,0-18.63Z"/>
    <path class="cls-7" d="M535.74,166.91l1.83,3.18c3.39,5.87,3.37,13.11-.05,18.97h0c-4.96,8.49-17.24,8.49-22.2,0h0c-3.42-5.85-3.44-13.09-.05-18.97l1.83-3.18c4.14-7.17,14.49-7.17,18.63,0Z"/>
    <path class="cls-7" d="M535.74,134.64l1.83-3.18c3.39-5.87,3.37-13.11-.05-18.97h0c-4.96-8.49-17.24-8.49-22.2,0h0c-3.42,5.85-3.44,13.09-.05,18.97l1.83,3.18c4.14,7.17,14.49,7.17,18.63,0Z"/>
    <path class="cls-7" d="M543.84,154.42l3.54.95c6.55,1.76,11.66,6.89,13.38,13.45h0c2.5,9.52-6.18,18.2-15.7,15.7h0c-6.56-1.72-11.69-6.83-13.45-13.38l-.95-3.54c-2.14-8,5.18-15.32,13.18-13.18Z"/>
    <path class="cls-7" d="M521.02,131.6l-.95-3.54c-1.76-6.55-6.89-11.66-13.45-13.38h0c-9.52-2.5-18.2,6.18-15.7,15.7h0c1.72,6.56,6.83,11.69,13.38,13.45l3.54.95c8,2.14,15.32-5.18,13.18-13.18Z"/>
    <path class="cls-7" d="M523.11,167.73l-.95,3.54c-1.76,6.55-6.89,11.66-13.45,13.38h0c-9.52,2.5-18.2-6.18-15.7-15.7h0c1.72-6.56,6.83-11.69,13.38-13.45l3.54-.95c8-2.14,15.32,5.18,13.18,13.18Z"/>
    <path class="cls-7" d="M545.93,144.91l3.54-.95c6.55-1.76,11.66-6.89,13.38-13.45h0c2.5-9.52-6.18-18.2-15.7-15.7h0c-6.56,1.72-11.69,6.83-13.45,13.38l-.95,3.54c-2.14,8,5.18,15.32,13.18,13.18Z"/>
    <circle class="cls-6" cx="525.84" cy="151.38" r="19.73"/>
  </g>
  <g>
    <path class="cls-7" d="M624.53,167.1l1.59-.92c2.94-1.7,6.56-1.69,9.48.02h0c4.25,2.48,4.25,8.62,0,11.1h0c-2.93,1.71-6.55,1.72-9.48.02l-1.59-.92c-3.59-2.07-3.59-7.25,0-9.32Z"/>
    <path class="cls-7" d="M608.39,167.1l-1.59-.92c-2.94-1.7-6.56-1.69-9.48.02h0c-4.25,2.48-4.25,8.62,0,11.1h0c2.93,1.71,6.55,1.72,9.48.02l1.59-.92c3.59-2.07,3.59-7.25,0-9.32Z"/>
    <path class="cls-7" d="M621.41,179.83l.92,1.59c1.7,2.94,1.69,6.56-.02,9.48h0c-2.48,4.25-8.62,4.25-11.1,0h0c-1.71-2.93-1.72-6.55-.02-9.48l.92-1.59c2.07-3.59,7.25-3.59,9.32,0Z"/>
    <path class="cls-7" d="M621.41,163.69l.92-1.59c1.7-2.94,1.69-6.56-.02-9.48h0c-2.48-4.25-8.62-4.25-11.1,0h0c-1.71,2.93-1.72,6.55-.02,9.48l.92,1.59c2.07,3.59,7.25,3.59,9.32,0Z"/>
    <path class="cls-7" d="M625.46,173.58l1.77.47c3.27.88,5.83,3.44,6.69,6.72h0c1.25,4.76-3.09,9.1-7.85,7.85h0c-3.28-.86-5.85-3.41-6.72-6.69l-.47-1.77c-1.07-4,2.59-7.66,6.59-6.59Z"/>
    <path class="cls-7" d="M614.05,162.17l-.47-1.77c-.88-3.27-3.44-5.83-6.72-6.69h0c-4.76-1.25-9.1,3.09-7.85,7.85h0c.86,3.28,3.41,5.85,6.69,6.72l1.77.47c4,1.07,7.66-2.59,6.59-6.59Z"/>
    <path class="cls-7" d="M615.09,180.24l-.47,1.77c-.88,3.27-3.44,5.83-6.72,6.69h0c-4.76,1.25-9.1-3.09-7.85-7.85h0c.86-3.28,3.41-5.85,6.69-6.72l1.77-.47c4-1.07,7.66,2.59,6.59,6.59Z"/>
    <path class="cls-7" d="M626.51,168.82l1.77-.47c3.27-.88,5.83-3.44,6.69-6.72h0c1.25-4.76-3.09-9.1-7.85-7.85h0c-3.28.86-5.85,3.41-6.72,6.69l-.47,1.77c-1.07,4,2.59,7.66,6.59,6.59Z"/>
    <circle class="cls-6" cx="616.46" cy="172.06" r="9.87"/>
  </g>
  <g>
    <path class="cls-1" d="M633.28,72.21l3.18-1.83c5.87-3.39,13.11-3.37,18.97.05h0c8.49,4.96,8.49,17.24,0,22.2h0c-5.85,3.42-13.09,3.44-18.97.05l-3.18-1.83c-7.17-4.14-7.17-14.49,0-18.63Z"/>
    <path class="cls-1" d="M601,72.21l-3.18-1.83c-5.87-3.39-13.11-3.37-18.97.05h0c-8.49,4.96-8.49,17.24,0,22.2h0c5.85,3.42,13.09,3.44,18.97.05l3.18-1.83c7.17-4.14,7.17-14.49,0-18.63Z"/>
    <path class="cls-1" d="M627.03,97.67l1.83,3.18c3.39,5.87,3.37,13.11-.05,18.97h0c-4.96,8.49-17.24,8.49-22.2,0h0c-3.42-5.85-3.44-13.09-.05-18.97l1.83-3.18c4.14-7.17,14.49-7.17,18.63,0Z"/>
    <path class="cls-1" d="M627.03,65.39l1.83-3.18c3.39-5.87,3.37-13.11-.05-18.97h0c-4.96-8.49-17.24-8.49-22.2,0h0c-3.42,5.85-3.44,13.09-.05,18.97l1.83,3.18c4.14,7.17,14.49,7.17,18.63,0Z"/>
    <path class="cls-1" d="M635.14,85.18l3.54.95c6.55,1.76,11.66,6.89,13.38,13.45h0c2.5,9.52-6.18,18.2-15.7,15.7h0c-6.56-1.72-11.69-6.83-13.45-13.38l-.95-3.54c-2.14-8,5.18-15.32,13.18-13.18Z"/>
    <path class="cls-1" d="M612.32,62.36l-.95-3.54c-1.76-6.55-6.89-11.66-13.45-13.38h0c-9.52-2.5-18.2,6.18-15.7,15.7h0c1.72,6.56,6.83,11.69,13.38,13.45l3.54.95c8,2.14,15.32-5.18,13.18-13.18Z"/>
    <path class="cls-1" d="M614.41,98.48l-.95,3.54c-1.76,6.55-6.89,11.66-13.45,13.38h0c-9.52,2.5-18.2-6.18-15.7-15.7h0c1.72-6.56,6.83-11.69,13.38-13.45l3.54-.95c8-2.14,15.32,5.18,13.18,13.18Z"/>
    <path class="cls-1" d="M637.23,75.66l3.54-.95c6.55-1.76,11.66-6.89,13.38-13.45h0c2.5-9.52-6.18-18.2-15.7-15.7h0c-6.56,1.72-11.69,6.83-13.45,13.38l-.95,3.54c-2.14,8,5.18,15.32,13.18,13.18Z"/>
    <circle class="cls-4" cx="617.14" cy="82.14" r="19.73"/>
  </g>
  <g>
    <path class="cls-1" d="M544.91,71.76l1.78-1.03c3.3-1.91,7.37-1.89,10.66.03h0c4.77,2.79,4.77,9.69,0,12.48h0c-3.29,1.92-7.36,1.93-10.66.03l-1.78-1.03c-4.03-2.33-4.03-8.14,0-10.47Z"/>
    <path class="cls-1" d="M526.78,71.76l-1.78-1.03c-3.3-1.91-7.37-1.89-10.66.03h0c-4.77,2.79-4.77,9.69,0,12.48h0c3.29,1.92,7.36,1.93,10.66.03l1.78-1.03c4.03-2.33,4.03-8.14,0-10.47Z"/>
    <path class="cls-1" d="M541.4,86.06l1.03,1.78c1.91,3.3,1.89,7.37-.03,10.66h0c-2.79,4.77-9.69,4.77-12.48,0h0c-1.92-3.29-1.93-7.36-.03-10.66l1.03-1.78c2.33-4.03,8.14-4.03,10.47,0Z"/>
    <path class="cls-1" d="M541.4,67.93l1.03-1.78c1.91-3.3,1.89-7.37-.03-10.66h0c-2.79-4.77-9.69-4.77-12.48,0h0c-1.92,3.29-1.93,7.36-.03,10.66l1.03,1.78c2.33,4.03,8.14,4.03,10.47,0Z"/>
    <path class="cls-1" d="M545.96,79.04l1.99.53c3.68.99,6.55,3.87,7.52,7.56h0c1.4,5.35-3.47,10.22-8.82,8.82h0c-3.69-.97-6.57-3.84-7.56-7.52l-.53-1.99c-1.2-4.5,2.91-8.61,7.4-7.4Z"/>
    <path class="cls-1" d="M533.13,66.22l-.53-1.99c-.99-3.68-3.87-6.55-7.56-7.52h0c-5.35-1.4-10.22,3.47-8.82,8.82h0c.97,3.69,3.84,6.57,7.52,7.56l1.99.53c4.5,1.2,8.61-2.91,7.4-7.4Z"/>
    <path class="cls-1" d="M534.31,86.52l-.53,1.99c-.99,3.68-3.87,6.55-7.56,7.52h0c-5.35,1.4-10.22-3.47-8.82-8.82h0c.97-3.69,3.84-6.57,7.52-7.56l1.99-.53c4.5-1.2,8.61,2.91,7.4,7.4Z"/>
    <path class="cls-1" d="M547.13,73.7l1.99-.53c3.68-.99,6.55-3.87,7.52-7.56h0c1.4-5.35-3.47-10.22-8.82-8.82h0c-3.69.97-6.57,3.84-7.56,7.52l-.53,1.99c-1.2,4.5,2.91,8.61,7.4,7.4Z"/>
    <circle class="cls-4" cx="535.84" cy="77.34" r="11.09"/>
  </g>
  <g>
    <ellipse class="cls-9" cx="384.36" cy="85.34" rx="66.41" ry="23.28"/>
    <ellipse class="cls-5" cx="385.43" cy="93.66" rx="49.9" ry="11.16"/>
    <path class="cls-2" d="M384.36,108.62c-36.68,0-66.41-10.42-66.41-23.28v131.04h132.81V85.34c0,12.86-29.73,23.28-66.41,23.28Z"/>
    <rect class="cls-2" x="244.1" y="100" width="88.63" height="28.19" transform="translate(19.13 -39.81) rotate(8.17)"/>
    <circle class="cls-9" cx="241.29" cy="107.33" r="16.16"/>
    <circle class="cls-3" cx="241.29" cy="96.35" r="3"/>
    <circle class="cls-3" cx="240.69" cy="119.54" r="3"/>
    <circle class="cls-3" cx="252.84" cy="106.75" r="3"/>
    <circle class="cls-3" cx="229.22" cy="106.75" r="3"/>
    <circle class="cls-3" cx="233.22" cy="99.56" r="3"/>
    <circle class="cls-3" cx="249.5" cy="99.35" r="3"/>
    <circle class="cls-3" cx="248.46" cy="115.95" r="3"/>
    <circle class="cls-3" cx="232.22" cy="115.76" r="3"/>
    <circle class="cls-3" cx="238.29" cy="104.05" r="3"/>
    <circle class="cls-3" cx="246.02" cy="106.59" r="3"/>
    <circle class="cls-3" cx="238.54" cy="111.79" r="3"/>
    <ellipse class="cls-3" cx="367.92" cy="152.35" rx="26.15" ry="14.64"/>
    <ellipse class="cls-3" cx="390.39" cy="145.48" rx="26.15" ry="14.64"/>
    <ellipse class="cls-3" cx="401.81" cy="156.71" rx="26.15" ry="14.64"/>
    <path class="cls-3" d="M366.75,175.2l1.96,3.4c.73,1.27.73,2.83-.01,4.09h0c-.87,1.49-3.03,1.49-3.91,0h0c-.74-1.26-.74-2.82-.01-4.09l1.96-3.4Z"/>
    <path class="cls-3" d="M405.23,182.58l1.96,3.4c.73,1.27.73,2.83-.01,4.09h0c-.87,1.49-3.03,1.49-3.91,0h0c-.74-1.26-.74-2.82-.01-4.09l1.96-3.4Z"/>
    <path class="cls-3" d="M387.88,172.64l1.96,3.4c.73,1.27.73,2.83-.01,4.09h0c-.87,1.49-3.03,1.49-3.91,0h0c-.74-1.26-.74-2.82-.01-4.09l1.96-3.4Z"/>
    <path class="cls-3" d="M377.16,186.14l1.96,3.4c.73,1.27.73,2.83-.01,4.09h0c-.87,1.49-3.03,1.49-3.91,0h0c-.74-1.26-.74-2.82-.01-4.09l1.96-3.4Z"/>
    <path class="cls-3" d="M395.83,190.44l1.96,3.4c.73,1.27.73,2.83-.01,4.09h0c-.87,1.49-3.03,1.49-3.91,0h0c-.74-1.26-.74-2.82-.01-4.09l1.96-3.4Z"/>
    <path class="cls-3" d="M416.54,172.05l1.96,3.4c.73,1.27.73,2.83-.01,4.09h0c-.87,1.49-3.03,1.49-3.91,0h0c-.74-1.26-.74-2.82-.01-4.09l1.96-3.4Z"/>
    <path class="cls-3" d="M414.03,193.8l1.96,3.4c.73,1.27.73,2.83-.01,4.09h0c-.87,1.49-3.03,1.49-3.91,0h0c-.74-1.26-.74-2.82-.01-4.09l1.96-3.4Z"/>
    <path class="cls-3" d="M367.92,195.84l1.96,3.4c.73,1.27.73,2.83-.01,4.09h0c-.87,1.49-3.03,1.49-3.91,0h0c-.74-1.26-.74-2.82-.01-4.09l1.96-3.4Z"/>
  </g>
  <g>
    <rect class="cls-8" x="2.12" y="132.12" width="176.1" height="19.49" transform="translate(-60.04 66.41) rotate(-30.89)"/>
    <rect class="cls-5" x="-1.53" y="126.05" width="99.06" height="19.49" transform="translate(183.79 87.8) rotate(90)"/>
    <rect class="cls-10" y="86.49" width="176.1" height="19.49"/>
    <rect class="cls-5" x="44.58" y="126.05" width="99.06" height="19.49" transform="translate(229.91 41.68) rotate(90)"/>
    <rect class="cls-5" x="80.86" y="126.05" width="99.06" height="19.49" transform="translate(266.19 5.4) rotate(90)"/>
    <rect class="cls-5" x="116.83" y="126.05" width="99.06" height="19.49" transform="translate(302.15 -30.56) rotate(90)"/>
    <rect class="cls-10" y="146.12" width="176.1" height="19.49"/>
    <rect class="cls-5" x="-39.2" y="126.05" width="99.06" height="19.49" transform="translate(146.12 125.47) rotate(90)"/>
    <rect class="cls-10" y="116.3" width="176.1" height="19.49"/>
    <rect class="cls-10" y="175.94" width="176.1" height="19.49"/>
    <rect class="cls-5" x="38.25" y="145.25" width="19.49" height="30.69"/>
    <rect class="cls-5" x="84.37" y="115.6" width="19.49" height="23.15"/>
    <rect class="cls-5" x="120.65" y="145.25" width="19.49" height="21.23"/>
    <rect class="cls-10" x="120.65" y="86.26" width="19.49" height="19.71"/>
  </g>
  <rect class="cls-4" x="410.55" y="6.95" width="162.58" height="8.13"/>
  <rect class="cls-4" x="566.62" y="11.07" width="16.36" height="8.13" transform="translate(589.93 -559.67) rotate(90)"/>
  <polygon class="cls-4" points="574.8 36.88 585.25 18.79 564.36 18.79 574.8 36.88"/>
  <circle class="cls-4" cx="97.61" cy="10.64" r="10.64"/>
  <circle class="cls-4" cx="410.55" cy="11.17" r="10.64"/>
  <rect class="cls-4" x="100.76" y="7.11" width="284.99" height="8.13"/>
  <rect class="cls-4" x="374.56" y="11.17" width="14.24" height="8.13" transform="translate(396.92 -366.44) rotate(90)"/>
  <polygon class="cls-4" points="381.68 36.88 392.12 18.79 371.23 18.79 381.68 36.88"/>
</svg>