<?xml version="1.0" encoding="UTF-8"?>
<svg id="Layer_1" xmlns="http://www.w3.org/2000/svg" viewBox="0 0 891.27 284.06">
  <defs>
    <style>
      .cls-1 {
        fill: #8670b2;
      }

      .cls-2 {
        fill: #925545;
      }

      .cls-3 {
        fill: #68479c;
      }

      .cls-4 {
        fill: #4783b5;
      }

      .cls-5 {
        fill: #f2758c;
      }

      .cls-6 {
        fill: #f8b4c0;
      }

      .cls-7 {
        fill: tan;
      }
    </style>
  </defs>
  <ellipse class="cls-2" cx="746.98" cy="42.85" rx="144.29" ry="42.85"/>
  <ellipse class="cls-4" cx="746.98" cy="48.74" rx="120.98" ry="21.66"/>
  <path class="cls-2" d="M746.98,85.7c-79.69,0-144.29-19.18-144.29-42.85v241.21h288.58V42.85c0,23.67-64.6,42.85-144.29,42.85Z"/>
  <rect class="cls-7" x="655.54" y="76" width="3.41" height="208.06"/>
  <rect class="cls-7" x="725.5" y="85.7" width="3.41" height="198.36"/>
  <rect class="cls-7" x="796.77" y="85.7" width="3.41" height="198.25"/>
  <rect class="cls-7" x="857.54" y="70.4" width="3.41" height="213.67"/>
  <rect class="cls-7" x="602.69" y="262.78" width="288.58" height="11.95"/>
  <path class="cls-7" d="M602.69,60.78v27.98s42.92,41.39,151.65,34.4c108.73-7,136.93-24.78,136.93-24.78v-27.98s-74.26,28.27-135.47,28.27-122.97-7.76-153.11-37.89Z"/>
  <g>
    <path class="cls-6" d="M65.58,226.38l4.64,8.03c5.28,9.15,5.25,20.42-.08,29.54h0c-5.47,9.37-19.01,9.37-24.48,0h0c-5.33-9.12-5.36-20.39-.08-29.54l4.64-8.03c3.41-5.91,11.95-5.91,15.36,0Z"/>
    <path class="cls-6" d="M65.58,199.78l4.64-8.03c5.28-9.15,5.25-20.42-.08-29.54h0c-5.47-9.37-19.01-9.37-24.48,0h0c-5.33,9.12-5.36,20.39-.08,29.54l4.64,8.03c3.41,5.91,11.95,5.91,15.36,0Z"/>
    <path class="cls-6" d="M44.59,221.48l-8.03,4.64c-9.15,5.28-20.42,5.25-29.54-.08h0c-9.37-5.47-9.37-19.01,0-24.48h0c9.12-5.33,20.39-5.36,29.54-.08l8.03,4.64c5.91,3.41,5.91,11.95,0,15.36Z"/>
    <path class="cls-6" d="M71.2,221.48l8.03,4.64c9.15,5.28,20.42,5.25,29.54-.08h0c9.37-5.47,9.37-19.01,0-24.48h0c-9.12-5.33-20.39-5.36-29.54-.08l-8.03,4.64c-5.91,3.41-5.91,11.95,0,15.36Z"/>
    <path class="cls-6" d="M55.4,227.91l-2.4,8.96c-2.73,10.2-10.73,18.15-20.94,20.83h0c-10.49,2.75-20.06-6.82-17.31-17.31h0c2.68-10.22,10.63-18.21,20.83-20.94l8.96-2.4c6.59-1.77,12.63,4.27,10.86,10.86Z"/>
    <path class="cls-6" d="M74.21,209.1l8.96-2.4c10.2-2.73,18.15-10.73,20.83-20.94h0c2.75-10.49-6.82-20.06-17.31-17.31h0c-10.22,2.68-18.21,10.63-20.94,20.83l-2.4,8.96c-1.77,6.59,4.27,12.63,10.86,10.86Z"/>
    <path class="cls-6" d="M44.37,211.72l-8.96-2.4c-10.2-2.73-18.15-10.73-20.83-20.94h0c-2.75-10.49,6.82-20.06,17.31-17.31h0c10.22,2.68,18.21,10.63,20.94,20.83l2.4,8.96c1.77,6.59-4.27,12.63-10.86,10.86Z"/>
    <path class="cls-6" d="M63.18,230.54l2.4,8.96c2.73,10.2,10.73,18.15,20.94,20.83h0c10.49,2.75,20.06-6.82,17.31-17.31h0c-2.68-10.22-10.63-18.21-20.83-20.94l-8.96-2.4c-6.59-1.77-12.63,4.27-10.86,10.86Z"/>
    <circle class="cls-5" cx="57.13" cy="213.08" r="24.74"/>
  </g>
  <g>
    <path class="cls-1" d="M220.81,129.83l4.64,8.03c5.28,9.15,5.25,20.42-.08,29.54h0c-5.47,9.37-19.01,9.37-24.48,0h0c-5.33-9.12-5.36-20.39-.08-29.54l4.64-8.03c3.41-5.91,11.95-5.91,15.36,0Z"/>
    <path class="cls-1" d="M220.81,103.23l4.64-8.03c5.28-9.15,5.25-20.42-.08-29.54h0c-5.47-9.37-19.01-9.37-24.48,0h0c-5.33,9.12-5.36,20.39-.08,29.54l4.64,8.03c3.41,5.91,11.95,5.91,15.36,0Z"/>
    <path class="cls-1" d="M199.83,124.93l-8.03,4.64c-9.15,5.28-20.42,5.25-29.54-.08h0c-9.37-5.47-9.37-19.01,0-24.48h0c9.12-5.33,20.39-5.36,29.54-.08l8.03,4.64c5.91,3.41,5.91,11.95,0,15.36Z"/>
    <path class="cls-1" d="M226.43,124.93l8.03,4.64c9.15,5.28,20.42,5.25,29.54-.08h0c9.37-5.47,9.37-19.01,0-24.48h0c-9.12-5.33-20.39-5.36-29.54-.08l-8.03,4.64c-5.91,3.41-5.91,11.95,0,15.36Z"/>
    <path class="cls-1" d="M210.63,131.36l-2.4,8.96c-2.73,10.2-10.73,18.15-20.94,20.83h0c-10.49,2.75-20.06-6.82-17.31-17.31h0c2.68-10.22,10.63-18.21,20.83-20.94l8.96-2.4c6.59-1.77,12.63,4.27,10.86,10.86Z"/>
    <path class="cls-1" d="M229.44,112.55l8.96-2.4c10.2-2.73,18.15-10.73,20.83-20.94h0c2.75-10.49-6.82-20.06-17.31-17.31h0c-10.22,2.68-18.21,10.63-20.94,20.83l-2.4,8.96c-1.77,6.59,4.27,12.63,10.86,10.86Z"/>
    <path class="cls-1" d="M199.6,115.17l-8.96-2.4c-10.2-2.73-18.15-10.73-20.83-20.94h0c-2.75-10.49,6.82-20.06,17.31-17.31h0c10.22,2.68,18.21,10.63,20.94,20.83l2.4,8.96c1.77,6.59-4.27,12.63-10.86,10.86Z"/>
    <path class="cls-1" d="M218.42,133.99l2.4,8.96c2.73,10.2,10.73,18.15,20.94,20.83h0c10.49,2.75,20.06-6.82,17.31-17.31h0c-2.68-10.22-10.63-18.21-20.83-20.94l-8.96-2.4c-6.59-1.77-12.63,4.27-10.86,10.86Z"/>
    <circle class="cls-3" cx="212.37" cy="116.53" r="24.74"/>
  </g>
  <g>
    <path class="cls-6" d="M377.39,218.61l4.64,8.03c5.28,9.15,5.25,20.42-.08,29.54h0c-5.47,9.37-19.01,9.37-24.48,0h0c-5.33-9.12-5.36-20.39-.08-29.54l4.64-8.03c3.41-5.91,11.95-5.91,15.36,0Z"/>
    <path class="cls-6" d="M377.39,192.01l4.64-8.03c5.28-9.15,5.25-20.42-.08-29.54h0c-5.47-9.37-19.01-9.37-24.48,0h0c-5.33,9.12-5.36,20.39-.08,29.54l4.64,8.03c3.41,5.91,11.95,5.91,15.36,0Z"/>
    <path class="cls-6" d="M356.41,213.71l-8.03,4.64c-9.15,5.28-20.42,5.25-29.54-.08h0c-9.37-5.47-9.37-19.01,0-24.48h0c9.12-5.33,20.39-5.36,29.54-.08l8.03,4.64c5.91,3.41,5.91,11.95,0,15.36Z"/>
    <path class="cls-6" d="M383.01,213.71l8.03,4.64c9.15,5.28,20.42,5.25,29.54-.08h0c9.37-5.47,9.37-19.01,0-24.48h0c-9.12-5.33-20.39-5.36-29.54-.08l-8.03,4.64c-5.91,3.41-5.91,11.95,0,15.36Z"/>
    <path class="cls-6" d="M367.21,220.15l-2.4,8.96c-2.73,10.2-10.73,18.15-20.94,20.83h0c-10.49,2.75-20.06-6.82-17.31-17.31h0c2.68-10.22,10.63-18.21,20.83-20.94l8.96-2.4c6.59-1.77,12.63,4.27,10.86,10.86Z"/>
    <path class="cls-6" d="M386.02,201.34l8.96-2.4c10.2-2.73,18.15-10.73,20.83-20.94h0c2.75-10.49-6.82-20.06-17.31-17.31h0c-10.22,2.68-18.21,10.63-20.94,20.83l-2.4,8.96c-1.77,6.59,4.27,12.63,10.86,10.86Z"/>
    <path class="cls-6" d="M356.18,203.96l-8.96-2.4c-10.2-2.73-18.15-10.73-20.83-20.94h0c-2.75-10.49,6.82-20.06,17.31-17.31h0c10.22,2.68,18.21,10.63,20.94,20.83l2.4,8.96c1.77,6.59-4.27,12.63-10.86,10.86Z"/>
    <path class="cls-6" d="M374.99,222.77l2.4,8.96c2.73,10.2,10.73,18.15,20.94,20.83h0c10.49,2.75,20.06-6.82,17.31-17.31h0c-2.68-10.22-10.63-18.21-20.83-20.94l-8.96-2.4c-6.59-1.77-12.63,4.27-10.86,10.86Z"/>
    <circle class="cls-5" cx="368.94" cy="205.31" r="24.74"/>
  </g>
  <g>
    <path class="cls-1" d="M516.1,172.67l4.64,8.03c5.28,9.15,5.25,20.42-.08,29.54h0c-5.47,9.37-19.01,9.37-24.48,0h0c-5.33-9.12-5.36-20.39-.08-29.54l4.64-8.03c3.41-5.91,11.95-5.91,15.36,0Z"/>
    <path class="cls-1" d="M516.1,146.07l4.64-8.03c5.28-9.15,5.25-20.42-.08-29.54h0c-5.47-9.37-19.01-9.37-24.48,0h0c-5.33,9.12-5.36,20.39-.08,29.54l4.64,8.03c3.41,5.91,11.95,5.91,15.36,0Z"/>
    <path class="cls-1" d="M495.12,167.78l-8.03,4.64c-9.15,5.28-20.42,5.25-29.54-.08h0c-9.37-5.47-9.37-19.01,0-24.48h0c9.12-5.33,20.39-5.36,29.54-.08l8.03,4.64c5.91,3.41,5.91,11.95,0,15.36Z"/>
    <path class="cls-1" d="M521.73,167.78l8.03,4.64c9.15,5.28,20.42,5.25,29.54-.08h0c9.37-5.47,9.37-19.01,0-24.48h0c-9.12-5.33-20.39-5.36-29.54-.08l-8.03,4.64c-5.91,3.41-5.91,11.95,0,15.36Z"/>
    <path class="cls-1" d="M505.92,174.21l-2.4,8.96c-2.73,10.2-10.73,18.15-20.94,20.83h0c-10.49,2.75-20.06-6.82-17.31-17.31h0c2.68-10.22,10.63-18.21,20.83-20.94l8.96-2.4c6.59-1.77,12.63,4.27,10.86,10.86Z"/>
    <path class="cls-1" d="M524.73,155.4l8.96-2.4c10.2-2.73,18.15-10.73,20.83-20.94h0c2.75-10.49-6.82-20.06-17.31-17.31h0c-10.22,2.68-18.21,10.63-20.94,20.83l-2.4,8.96c-1.77,6.59,4.27,12.63,10.86,10.86Z"/>
    <path class="cls-1" d="M494.9,158.02l-8.96-2.4c-10.2-2.73-18.15-10.73-20.83-20.94h0c-2.75-10.49,6.82-20.06,17.31-17.31h0c10.22,2.68,18.21,10.63,20.94,20.83l2.4,8.96c1.77,6.59-4.27,12.63-10.86,10.86Z"/>
    <path class="cls-1" d="M513.71,176.83l2.4,8.96c2.73,10.2,10.73,18.15,20.94,20.83h0c10.49,2.75,20.06-6.82,17.31-17.31h0c-2.68-10.22-10.63-18.21-20.83-20.94l-8.96-2.4c-6.59-1.77-12.63,4.27-10.86,10.86Z"/>
    <circle class="cls-3" cx="507.66" cy="159.37" r="24.74"/>
  </g>
  <g>
    <path class="cls-6" d="M469.19,251.2l2.6,4.5c2.96,5.13,2.95,11.45-.04,16.57h0c-3.07,5.25-10.66,5.25-13.73,0h0c-2.99-5.11-3-11.44-.04-16.57l2.6-4.5c1.91-3.32,6.7-3.32,8.61,0Z"/>
    <path class="cls-6" d="M469.19,236.28l2.6-4.5c2.96-5.13,2.95-11.45-.04-16.57h0c-3.07-5.25-10.66-5.25-13.73,0h0c-2.99,5.11-3,11.44-.04,16.57l2.6,4.5c1.91,3.32,6.7,3.32,8.61,0Z"/>
    <path class="cls-6" d="M457.42,248.45l-4.5,2.6c-5.13,2.96-11.45,2.95-16.57-.04h0c-5.25-3.07-5.25-10.66,0-13.73h0c5.11-2.99,11.44-3,16.57-.04l4.5,2.6c3.32,1.91,3.32,6.7,0,8.61Z"/>
    <path class="cls-6" d="M472.34,248.45l4.5,2.6c5.13,2.96,11.45,2.95,16.57-.04h0c5.25-3.07,5.25-10.66,0-13.73h0c-5.11-2.99-11.44-3-16.57-.04l-4.5,2.6c-3.32,1.91-3.32,6.7,0,8.61Z"/>
    <path class="cls-6" d="M463.48,252.06l-1.35,5.02c-1.53,5.72-6.02,10.18-11.74,11.68h0c-5.88,1.54-11.25-3.82-9.71-9.71h0c1.5-5.73,5.96-10.21,11.68-11.74l5.02-1.35c3.7-.99,7.08,2.39,6.09,6.09Z"/>
    <path class="cls-6" d="M474.03,241.51l5.02-1.35c5.72-1.53,10.18-6.02,11.68-11.74h0c1.54-5.88-3.82-11.25-9.71-9.71h0c-5.73,1.5-10.21,5.96-11.74,11.68l-1.35,5.02c-.99,3.7,2.39,7.08,6.09,6.09Z"/>
    <path class="cls-6" d="M457.29,242.98l-5.02-1.35c-5.72-1.53-10.18-6.02-11.68-11.74h0c-1.54-5.88,3.82-11.25,9.71-9.71h0c5.73,1.5,10.21,5.96,11.74,11.68l1.35,5.02c.99,3.7-2.39,7.08-6.09,6.09Z"/>
    <path class="cls-6" d="M467.84,253.53l1.35,5.02c1.53,5.72,6.02,10.18,11.74,11.68h0c5.88,1.54,11.25-3.82,9.71-9.71h0c-1.5-5.73-5.96-10.21-11.68-11.74l-5.02-1.35c-3.7-.99-7.08,2.39-6.09,6.09Z"/>
    <circle class="cls-5" cx="464.45" cy="243.74" r="13.88"/>
  </g>
  <g>
    <path class="cls-6" d="M162.67,245.28l2.6,4.5c2.96,5.13,2.95,11.45-.04,16.57h0c-3.07,5.25-10.66,5.25-13.73,0h0c-2.99-5.11-3-11.44-.04-16.57l2.6-4.5c1.91-3.32,6.7-3.32,8.61,0Z"/>
    <path class="cls-6" d="M162.67,230.36l2.6-4.5c2.96-5.13,2.95-11.45-.04-16.57h0c-3.07-5.25-10.66-5.25-13.73,0h0c-2.99,5.11-3,11.44-.04,16.57l2.6,4.5c1.91,3.32,6.7,3.32,8.61,0Z"/>
    <path class="cls-6" d="M150.9,242.53l-4.5,2.6c-5.13,2.96-11.45,2.95-16.57-.04h0c-5.25-3.07-5.25-10.66,0-13.73h0c5.11-2.99,11.44-3,16.57-.04l4.5,2.6c3.32,1.91,3.32,6.7,0,8.61Z"/>
    <path class="cls-6" d="M165.82,242.53l4.5,2.6c5.13,2.96,11.45,2.95,16.57-.04h0c5.25-3.07,5.25-10.66,0-13.73h0c-5.11-2.99-11.44-3-16.57-.04l-4.5,2.6c-3.32,1.91-3.32,6.7,0,8.61Z"/>
    <path class="cls-6" d="M156.96,246.14l-1.35,5.02c-1.53,5.72-6.02,10.18-11.74,11.68h0c-5.88,1.54-11.25-3.82-9.71-9.71h0c1.5-5.73,5.96-10.21,11.68-11.74l5.02-1.35c3.7-.99,7.08,2.39,6.09,6.09Z"/>
    <path class="cls-6" d="M167.51,235.59l5.02-1.35c5.72-1.53,10.18-6.02,11.68-11.74h0c1.54-5.88-3.82-11.25-9.71-9.71h0c-5.73,1.5-10.21,5.96-11.74,11.68l-1.35,5.02c-.99,3.7,2.39,7.08,6.09,6.09Z"/>
    <path class="cls-6" d="M150.77,237.06l-5.02-1.35c-5.72-1.53-10.18-6.02-11.68-11.74h0c-1.54-5.88,3.82-11.25,9.71-9.71h0c5.73,1.5,10.21,5.96,11.74,11.68l1.35,5.02c.99,3.7-2.39,7.08-6.09,6.09Z"/>
    <path class="cls-6" d="M161.32,247.61l1.35,5.02c1.53,5.72,6.02,10.18,11.74,11.68h0c5.88,1.54,11.25-3.82,9.71-9.71h0c-1.5-5.73-5.96-10.21-11.68-11.74l-5.02-1.35c-3.7-.99-7.08,2.39-6.09,6.09Z"/>
    <circle class="cls-5" cx="157.93" cy="237.82" r="13.88"/>
  </g>
  <g>
    <path class="cls-1" d="M113.41,148.37l1.38,2.39c1.57,2.72,1.56,6.07-.02,8.78h0c-1.63,2.79-5.65,2.79-7.28,0h0c-1.58-2.71-1.59-6.06-.02-8.78l1.38-2.39c1.02-1.76,3.55-1.76,4.57,0Z"/>
    <path class="cls-1" d="M113.41,140.46l1.38-2.39c1.57-2.72,1.56-6.07-.02-8.78h0c-1.63-2.79-5.65-2.79-7.28,0h0c-1.58,2.71-1.59,6.06-.02,8.78l1.38,2.39c1.02,1.76,3.55,1.76,4.57,0Z"/>
    <path class="cls-1" d="M107.17,146.91l-2.39,1.38c-2.72,1.57-6.07,1.56-8.78-.02h0c-2.79-1.63-2.79-5.65,0-7.28h0c2.71-1.58,6.06-1.59,8.78-.02l2.39,1.38c1.76,1.02,1.76,3.55,0,4.57Z"/>
    <path class="cls-1" d="M115.09,146.91l2.39,1.38c2.72,1.57,6.07,1.56,8.78-.02h0c2.79-1.63,2.79-5.65,0-7.28h0c-2.71-1.58-6.06-1.59-8.78-.02l-2.39,1.38c-1.76,1.02-1.76,3.55,0,4.57Z"/>
    <path class="cls-1" d="M110.39,148.82l-.71,2.66c-.81,3.03-3.19,5.4-6.23,6.2h0c-3.12.82-5.97-2.03-5.15-5.15h0c.8-3.04,3.16-5.41,6.2-6.23l2.66-.71c1.96-.53,3.76,1.27,3.23,3.23Z"/>
    <path class="cls-1" d="M115.98,143.23l2.66-.71c3.03-.81,5.4-3.19,6.2-6.23h0c.82-3.12-2.03-5.97-5.15-5.15h0c-3.04.8-5.41,3.16-6.23,6.2l-.71,2.66c-.53,1.96,1.27,3.76,3.23,3.23Z"/>
    <path class="cls-1" d="M107.11,144.01l-2.66-.71c-3.03-.81-5.4-3.19-6.2-6.23h0c-.82-3.12,2.03-5.97,5.15-5.15h0c3.04.8,5.41,3.16,6.23,6.2l.71,2.66c.53,1.96-1.27,3.76-3.23,3.23Z"/>
    <path class="cls-1" d="M112.7,149.6l.71,2.66c.81,3.03,3.19,5.4,6.23,6.2h0c3.12.82,5.97-2.03,5.15-5.15h0c-.8-3.04-3.16-5.41-6.2-6.23l-2.66-.71c-1.96-.53-3.76,1.27-3.23,3.23Z"/>
    <circle class="cls-3" cx="110.9" cy="144.41" r="7.36"/>
  </g>
  <g>
    <path class="cls-6" d="M415.99,140.16l1.38,2.39c1.57,2.72,1.56,6.07-.02,8.78h0c-1.63,2.79-5.65,2.79-7.28,0h0c-1.58-2.71-1.59-6.06-.02-8.78l1.38-2.39c1.02-1.76,3.55-1.76,4.57,0Z"/>
    <path class="cls-6" d="M415.99,132.25l1.38-2.39c1.57-2.72,1.56-6.07-.02-8.78h0c-1.63-2.79-5.65-2.79-7.28,0h0c-1.58,2.71-1.59,6.06-.02,8.78l1.38,2.39c1.02,1.76,3.55,1.76,4.57,0Z"/>
    <path class="cls-6" d="M409.75,138.7l-2.39,1.38c-2.72,1.57-6.07,1.56-8.78-.02h0c-2.79-1.63-2.79-5.65,0-7.28h0c2.71-1.58,6.06-1.59,8.78-.02l2.39,1.38c1.76,1.02,1.76,3.55,0,4.57Z"/>
    <path class="cls-6" d="M417.66,138.7l2.39,1.38c2.72,1.57,6.07,1.56,8.78-.02h0c2.79-1.63,2.79-5.65,0-7.28h0c-2.71-1.58-6.06-1.59-8.78-.02l-2.39,1.38c-1.76,1.02-1.76,3.55,0,4.57Z"/>
    <path class="cls-6" d="M412.96,140.62l-.71,2.66c-.81,3.03-3.19,5.4-6.23,6.2h0c-3.12.82-5.97-2.03-5.15-5.15h0c.8-3.04,3.16-5.41,6.2-6.23l2.66-.71c1.96-.53,3.76,1.27,3.23,3.23Z"/>
    <path class="cls-6" d="M418.55,135.02l2.66-.71c3.03-.81,5.4-3.19,6.2-6.23h0c.82-3.12-2.03-5.97-5.15-5.15h0c-3.04.8-5.41,3.16-6.23,6.2l-.71,2.66c-.53,1.96,1.27,3.76,3.23,3.23Z"/>
    <path class="cls-6" d="M409.68,135.8l-2.66-.71c-3.03-.81-5.4-3.19-6.2-6.23h0c-.82-3.12,2.03-5.97,5.15-5.15h0c3.04.8,5.41,3.16,6.23,6.2l.71,2.66c.53,1.96-1.27,3.76-3.23,3.23Z"/>
    <path class="cls-6" d="M415.27,141.4l.71,2.66c.81,3.03,3.19,5.4,6.23,6.2h0c3.12.82,5.97-2.03,5.15-5.15h0c-.8-3.04-3.16-5.41-6.2-6.23l-2.66-.71c-1.96-.53-3.76,1.27-3.23,3.23Z"/>
    <circle class="cls-5" cx="413.48" cy="136.21" r="7.36"/>
  </g>
  <g>
    <path class="cls-1" d="M276.59,188.54l1.38,2.39c1.57,2.72,1.56,6.07-.02,8.78h0c-1.63,2.79-5.65,2.79-7.28,0h0c-1.58-2.71-1.59-6.06-.02-8.78l1.38-2.39c1.02-1.76,3.55-1.76,4.57,0Z"/>
    <path class="cls-1" d="M276.59,180.63l1.38-2.39c1.57-2.72,1.56-6.07-.02-8.78h0c-1.63-2.79-5.65-2.79-7.28,0h0c-1.58,2.71-1.59,6.06-.02,8.78l1.38,2.39c1.02,1.76,3.55,1.76,4.57,0Z"/>
    <path class="cls-1" d="M270.35,187.09l-2.39,1.38c-2.72,1.57-6.07,1.56-8.78-.02h0c-2.79-1.63-2.79-5.65,0-7.28h0c2.71-1.58,6.06-1.59,8.78-.02l2.39,1.38c1.76,1.02,1.76,3.55,0,4.57Z"/>
    <path class="cls-1" d="M278.26,187.09l2.39,1.38c2.72,1.57,6.07,1.56,8.78-.02h0c2.79-1.63,2.79-5.65,0-7.28h0c-2.71-1.58-6.06-1.59-8.78-.02l-2.39,1.38c-1.76,1.02-1.76,3.55,0,4.57Z"/>
    <path class="cls-1" d="M273.56,189l-.71,2.66c-.81,3.03-3.19,5.4-6.23,6.2h0c-3.12.82-5.97-2.03-5.15-5.15h0c.8-3.04,3.16-5.41,6.2-6.23l2.66-.71c1.96-.53,3.76,1.27,3.23,3.23Z"/>
    <path class="cls-1" d="M279.16,183.41l2.66-.71c3.03-.81,5.4-3.19,6.2-6.23h0c.82-3.12-2.03-5.97-5.15-5.15h0c-3.04.8-5.41,3.16-6.23,6.2l-.71,2.66c-.53,1.96,1.27,3.76,3.23,3.23Z"/>
    <path class="cls-1" d="M270.29,184.19l-2.66-.71c-3.03-.81-5.4-3.19-6.2-6.23h0c-.82-3.12,2.03-5.97,5.15-5.15h0c3.04.8,5.41,3.16,6.23,6.2l.71,2.66c.53,1.96-1.27,3.76-3.23,3.23Z"/>
    <path class="cls-1" d="M275.88,189.78l.71,2.66c.81,3.03,3.19,5.4,6.23,6.2h0c3.12.82,5.97-2.03,5.15-5.15h0c-.8-3.04-3.16-5.41-6.2-6.23l-2.66-.71c-1.96-.53-3.76,1.27-3.23,3.23Z"/>
    <circle class="cls-3" cx="274.08" cy="184.59" r="7.36"/>
  </g>
</svg>