<?xml version="1.0" encoding="UTF-8"?>
<svg id="Layer_1" xmlns="http://www.w3.org/2000/svg" viewBox="0 0 688.35 257.85">
  <defs>
    <style>
      .cls-1 {
        fill: #8670b2;
      }

      .cls-2 {
        fill: #226694;
      }

      .cls-3 {
        fill: #925545;
      }

      .cls-4 {
        fill: #68479c;
      }

      .cls-5 {
        fill: #4783b5;
      }

      .cls-6 {
        fill: #f2758c;
      }

      .cls-7 {
        fill: #f8b4c0;
      }

      .cls-8 {
        fill: tan;
      }
    </style>
  </defs>
  <ellipse class="cls-5" cx="70.16" cy="107.75" rx="70.16" ry="39.28"/>
  <ellipse class="cls-5" cx="130.44" cy="89.3" rx="70.16" ry="39.28"/>
  <ellipse class="cls-5" cx="161.08" cy="119.44" rx="70.16" ry="39.28"/>
  <ellipse class="cls-5" cx="367.75" cy="66.28" rx="24.66" ry="13.81"/>
  <ellipse class="cls-5" cx="388.94" cy="59.79" rx="24.66" ry="13.81"/>
  <ellipse class="cls-5" cx="399.7" cy="70.39" rx="24.66" ry="13.81"/>
  <path class="cls-2" d="M67.01,169.04l5.27,9.13c1.96,3.4,1.95,7.59-.03,10.97h0c-2.34,4.01-8.14,4.01-10.48,0h0c-1.98-3.39-1.99-7.58-.03-10.97l5.27-9.13Z"/>
  <path class="cls-2" d="M170.25,188.85l5.27,9.13c1.96,3.4,1.95,7.59-.03,10.97h0c-2.34,4.01-8.14,4.01-10.48,0h0c-1.98-3.39-1.99-7.58-.03-10.97l5.27-9.13Z"/>
  <path class="cls-2" d="M123.71,162.19l5.27,9.13c1.96,3.4,1.95,7.59-.03,10.97h0c-2.34,4.01-8.14,4.01-10.48,0h0c-1.98-3.39-1.99-7.58-.03-10.97l5.27-9.13Z"/>
  <path class="cls-2" d="M94.95,198.38l5.27,9.13c1.96,3.4,1.95,7.59-.03,10.97h0c-2.34,4.01-8.14,4.01-10.48,0h0c-1.98-3.39-1.99-7.58-.03-10.97l5.27-9.13Z"/>
  <path class="cls-2" d="M145.04,209.93l5.27,9.13c1.96,3.4,1.95,7.59-.03,10.97h0c-2.34,4.01-8.14,4.01-10.48,0h0c-1.98-3.39-1.99-7.58-.03-10.97l5.27-9.13Z"/>
  <path class="cls-2" d="M200.6,160.6l5.27,9.13c1.96,3.4,1.95,7.59-.03,10.97h0c-2.34,4.01-8.14,4.01-10.48,0h0c-1.98-3.39-1.99-7.58-.03-10.97l5.27-9.13Z"/>
  <path class="cls-2" d="M193.87,218.93l5.27,9.13c1.96,3.4,1.95,7.59-.03,10.97h0c-2.34,4.01-8.14,4.01-10.48,0h0c-1.98-3.39-1.99-7.58-.03-10.97l5.27-9.13Z"/>
  <path class="cls-2" d="M70.16,224.41l5.27,9.13c1.96,3.4,1.95,7.59-.03,10.97h0c-2.34,4.01-8.14,4.01-10.48,0h0c-1.98-3.39-1.99-7.58-.03-10.97l5.27-9.13Z"/>
  <g>
    <path class="cls-7" d="M624.16,203.23l5.3,9.18c4.22,7.31,4.19,16.31-.06,23.59h0c-2.34,4.01-8.14,4.01-10.48,0h0c-4.26-7.28-4.28-16.29-.06-23.59l5.3-9.18Z"/>
    <path class="cls-7" d="M624.16,203.23l5.3-9.18c4.22-7.31,4.19-16.31-.06-23.59h0c-2.34-4.01-8.14-4.01-10.48,0h0c-4.26,7.28-4.28,16.29-.06,23.59l5.3,9.18Z"/>
    <path class="cls-7" d="M624.16,203.65l-9.18,5.3c-7.31,4.22-16.31,4.19-23.59-.06h0c-4.01-2.34-4.01-8.14,0-10.48h0c7.28-4.26,16.29-4.28,23.59-.06l9.18,5.3Z"/>
    <path class="cls-7" d="M624.16,203.65l9.18,5.3c7.31,4.22,16.31,4.19,23.59-.06h0c4.01-2.34,4.01-8.14,0-10.48h0c-7.28-4.26-16.29-4.28-23.59-.06l-9.18,5.3Z"/>
    <path class="cls-7" d="M625.02,203.23l-2.74,10.24c-2.18,8.15-8.57,14.5-16.73,16.64h0c-4.49,1.18-8.59-2.92-7.41-7.41h0c2.14-8.16,8.49-14.54,16.64-16.73l10.24-2.74Z"/>
    <path class="cls-7" d="M625.02,203.23l10.24-2.74c8.15-2.18,14.5-8.57,16.64-16.73h0c1.18-4.49-2.92-8.59-7.41-7.41h0c-8.16,2.14-14.54,8.49-16.73,16.64l-2.74,10.24Z"/>
    <path class="cls-7" d="M624.93,204.75l-10.24-2.74c-8.15-2.18-14.5-8.57-16.64-16.73h0c-1.18-4.49,2.92-8.59,7.41-7.41h0c8.16,2.14,14.54,8.49,16.73,16.64l2.74,10.24Z"/>
    <path class="cls-7" d="M624.93,204.75l2.74,10.24c2.18,8.15,8.57,14.5,16.73,16.64h0c4.49,1.18,8.59-2.92,7.41-7.41h0c-2.14-8.16-8.49-14.54-16.64-16.73l-10.24-2.74Z"/>
    <circle class="cls-6" cx="623.72" cy="203.23" r="14.38"/>
  </g>
  <g>
    <path class="cls-1" d="M575.31,180.38l2.77,4.79c2.2,3.81,2.19,8.52-.03,12.32h0c-1.22,2.09-4.25,2.09-5.47,0h0c-2.22-3.8-2.23-8.51-.03-12.32l2.77-4.79Z"/>
    <path class="cls-1" d="M575.31,180.38l2.77-4.79c2.2-3.81,2.19-8.52-.03-12.32h0c-1.22-2.09-4.25-2.09-5.47,0h0c-2.22,3.8-2.23,8.51-.03,12.32l2.77,4.79Z"/>
    <path class="cls-1" d="M575.31,180.6l-4.79,2.77c-3.81,2.2-8.52,2.19-12.32-.03h0c-2.09-1.22-2.09-4.25,0-5.47h0c3.8-2.22,8.51-2.23,12.32-.03l4.79,2.77Z"/>
    <path class="cls-1" d="M575.31,180.6l4.79,2.77c3.81,2.2,8.52,2.19,12.32-.03h0c2.09-1.22,2.09-4.25,0-5.47h0c-3.8-2.22-8.51-2.23-12.32-.03l-4.79,2.77Z"/>
    <path class="cls-1" d="M575.76,180.38l-1.43,5.35c-1.14,4.25-4.47,7.57-8.73,8.69h0c-2.35.62-4.49-1.52-3.87-3.87h0c1.12-4.26,4.43-7.59,8.69-8.73l5.35-1.43Z"/>
    <path class="cls-1" d="M575.76,180.38l5.35-1.43c4.25-1.14,7.57-4.47,8.69-8.73h0c.62-2.35-1.52-4.49-3.87-3.87h0c-4.26,1.12-7.59,4.43-8.73,8.69l-1.43,5.35Z"/>
    <path class="cls-1" d="M575.71,181.18l-5.35-1.43c-4.25-1.14-7.57-4.47-8.69-8.73h0c-.62-2.35,1.52-4.49,3.87-3.87h0c4.26,1.12,7.59,4.43,8.73,8.69l1.43,5.35Z"/>
    <path class="cls-1" d="M575.71,181.18l1.43,5.35c1.14,4.25,4.47,7.57,8.73,8.69h0c2.35.62,4.49-1.52,3.87-3.87h0c-1.12-4.26-4.43-7.59-8.69-8.73l-5.35-1.43Z"/>
    <circle class="cls-4" cx="575.08" cy="180.38" r="7.51"/>
  </g>
  <g>
    <path class="cls-7" d="M671.03,225.66l2.36,4.09c1.88,3.26,1.87,7.27-.03,10.51h0c-1.04,1.79-3.63,1.79-4.67,0h0c-1.9-3.25-1.91-7.26-.03-10.51l2.36-4.09Z"/>
    <path class="cls-7" d="M671.03,225.66l2.36-4.09c1.88-3.26,1.87-7.27-.03-10.51h0c-1.04-1.79-3.63-1.79-4.67,0h0c-1.9,3.25-1.91,7.26-.03,10.51l2.36,4.09Z"/>
    <path class="cls-7" d="M671.03,225.85l-4.09,2.36c-3.26,1.88-7.27,1.87-10.51-.03h0c-1.79-1.04-1.79-3.63,0-4.67h0c3.25-1.9,7.26-1.91,10.51-.03l4.09,2.36Z"/>
    <path class="cls-7" d="M671.03,225.85l4.09,2.36c3.26,1.88,7.27,1.87,10.51-.03h0c1.79-1.04,1.79-3.63,0-4.67h0c-3.25-1.9-7.26-1.91-10.51-.03l-4.09,2.36Z"/>
    <path class="cls-7" d="M671.41,225.66l-1.22,4.56c-.97,3.63-3.82,6.46-7.45,7.42h0c-2,.53-3.83-1.3-3.3-3.3h0c.95-3.64,3.78-6.48,7.42-7.45l4.56-1.22Z"/>
    <path class="cls-7" d="M671.41,225.66l4.56-1.22c3.63-.97,6.46-3.82,7.42-7.45h0c.53-2-1.3-3.83-3.3-3.3h0c-3.64.95-6.48,3.78-7.45,7.42l-1.22,4.56Z"/>
    <path class="cls-7" d="M671.36,226.34l-4.56-1.22c-3.63-.97-6.46-3.82-7.42-7.45h0c-.53-2,1.3-3.83,3.3-3.3h0c3.64.95,6.48,3.78,7.45,7.42l1.22,4.56Z"/>
    <path class="cls-7" d="M671.36,226.34l1.22,4.56c.97,3.63,3.82,6.46,7.45,7.42h0c2,.53,3.83-1.3,3.3-3.3h0c-.95-3.64-3.78-6.48-7.42-7.45l-4.56-1.22Z"/>
    <circle class="cls-6" cx="670.83" cy="225.66" r="6.41"/>
  </g>
  <g>
    <path class="cls-1" d="M672.41,180.6l2.36,4.09c1.88,3.26,1.87,7.27-.03,10.51h0c-1.04,1.79-3.63,1.79-4.67,0h0c-1.9-3.25-1.91-7.26-.03-10.51l2.36-4.09Z"/>
    <path class="cls-1" d="M672.41,180.6l2.36-4.09c1.88-3.26,1.87-7.27-.03-10.51h0c-1.04-1.79-3.63-1.79-4.67,0h0c-1.9,3.25-1.91,7.26-.03,10.51l2.36,4.09Z"/>
    <path class="cls-1" d="M672.41,180.79l-4.09,2.36c-3.26,1.88-7.27,1.87-10.51-.03h0c-1.79-1.04-1.79-3.63,0-4.67h0c3.25-1.9,7.26-1.91,10.51-.03l4.09,2.36Z"/>
    <path class="cls-1" d="M672.41,180.79l4.09,2.36c3.26,1.88,7.27,1.87,10.51-.03h0c1.79-1.04,1.79-3.63,0-4.67h0c-3.25-1.9-7.26-1.91-10.51-.03l-4.09,2.36Z"/>
    <path class="cls-1" d="M672.79,180.6l-1.22,4.56c-.97,3.63-3.82,6.46-7.45,7.42h0c-2,.53-3.83-1.3-3.3-3.3h0c.95-3.64,3.78-6.48,7.42-7.45l4.56-1.22Z"/>
    <path class="cls-1" d="M672.79,180.6l4.56-1.22c3.63-.97,6.46-3.82,7.42-7.45h0c.53-2-1.3-3.83-3.3-3.3h0c-3.64.95-6.48,3.78-7.45,7.42l-1.22,4.56Z"/>
    <path class="cls-1" d="M672.75,181.28l-4.56-1.22c-3.63-.97-6.46-3.82-7.42-7.45h0c-.53-2,1.3-3.83,3.3-3.3h0c3.64.95,6.48,3.78,7.45,7.42l1.22,4.56Z"/>
    <path class="cls-1" d="M672.75,181.28l1.22,4.56c.97,3.63,3.82,6.46,7.45,7.42h0c2,.53,3.83-1.3,3.3-3.3h0c-.95-3.64-3.78-6.48-7.42-7.45l-4.56-1.22Z"/>
    <circle class="cls-4" cx="672.21" cy="180.6" r="6.41"/>
  </g>
  <g>
    <path class="cls-7" d="M575.08,227.58l2.36,4.09c1.88,3.26,1.87,7.27-.03,10.51h0c-1.04,1.79-3.63,1.79-4.67,0h0c-1.9-3.25-1.91-7.26-.03-10.51l2.36-4.09Z"/>
    <path class="cls-7" d="M575.08,227.58l2.36-4.09c1.88-3.26,1.87-7.27-.03-10.51h0c-1.04-1.79-3.63-1.79-4.67,0h0c-1.9,3.25-1.91,7.26-.03,10.51l2.36,4.09Z"/>
    <path class="cls-7" d="M575.08,227.77l-4.09,2.36c-3.26,1.88-7.27,1.87-10.51-.03h0c-1.79-1.04-1.79-3.63,0-4.67h0c3.25-1.9,7.26-1.91,10.51-.03l4.09,2.36Z"/>
    <path class="cls-7" d="M575.08,227.77l4.09,2.36c3.26,1.88,7.27,1.87,10.51-.03h0c1.79-1.04,1.79-3.63,0-4.67h0c-3.25-1.9-7.26-1.91-10.51-.03l-4.09,2.36Z"/>
    <path class="cls-7" d="M575.46,227.58l-1.22,4.56c-.97,3.63-3.82,6.46-7.45,7.42h0c-2,.53-3.83-1.3-3.3-3.3h0c.95-3.64,3.78-6.48,7.42-7.45l4.56-1.22Z"/>
    <path class="cls-7" d="M575.46,227.58l4.56-1.22c3.63-.97,6.46-3.82,7.42-7.45h0c.53-2-1.3-3.83-3.3-3.3h0c-3.64.95-6.48,3.78-7.45,7.42l-1.22,4.56Z"/>
    <path class="cls-7" d="M575.42,228.26l-4.56-1.22c-3.63-.97-6.46-3.82-7.42-7.45h0c-.53-2,1.3-3.83,3.3-3.3h0c3.64.95,6.48,3.78,7.45,7.42l1.22,4.56Z"/>
    <path class="cls-7" d="M575.42,228.26l1.22,4.56c.97,3.63,3.82,6.46,7.45,7.42h0c2,.53,3.83-1.3,3.3-3.3h0c-.95-3.64-3.78-6.48-7.42-7.45l-4.56-1.22Z"/>
    <circle class="cls-6" cx="574.88" cy="227.58" r="6.41"/>
  </g>
  <g>
    <ellipse class="cls-3" cx="378.56" cy="161.53" rx="57.61" ry="17.11"/>
    <ellipse class="cls-5" cx="378.93" cy="168.69" rx="45.54" ry="8.7"/>
    <path class="cls-3" d="M378.56,178.64c-31.82,0-57.61-7.66-57.61-17.11v96.31h115.23v-96.31c0,9.45-25.79,17.11-57.61,17.11Z"/>
    <rect class="cls-8" x="342.05" y="174.77" width="1.36" height="83.08"/>
    <rect class="cls-8" x="369.98" y="178.64" width="1.36" height="79.2"/>
    <rect class="cls-8" x="398.44" y="178.64" width="1.36" height="79.2"/>
    <rect class="cls-8" x="422.71" y="172.53" width="1.36" height="85.31"/>
    <rect class="cls-8" x="320.95" y="249.35" width="115.23" height="4.77"/>
    <path class="cls-8" d="M320.95,168.69v11.17s17.14,16.53,60.55,13.73c43.41-2.79,54.67-9.89,54.67-9.89v-11.17s-29.65,11.29-54.09,11.29-49.1-3.1-61.13-15.13Z"/>
    <rect class="cls-5" x="440.33" y="64.78" width="15.36" height="193.07"/>
    <rect class="cls-5" x="428.96" y="137.87" width="11.66" height="29.54" transform="translate(255.41 -271.82) rotate(47.75)"/>
  </g>
  <path class="cls-2" d="M362.85,135.48l5.27,9.13c1.96,3.4,1.95,7.59-.03,10.97h0c-2.34,4.01-8.14,4.01-10.48,0h0c-1.98-3.39-1.99-7.58-.03-10.97l5.27-9.13Z"/>
  <path class="cls-2" d="M388.37,119.44l5.27,9.13c1.96,3.4,1.95,7.59-.03,10.97h0c-2.34,4.01-8.14,4.01-10.48,0h0c-1.98-3.39-1.99-7.58-.03-10.97l5.27-9.13Z"/>
  <path class="cls-2" d="M408.18,99.7l5.27,9.13c1.96,3.4,1.95,7.59-.03,10.97h0c-2.34,4.01-8.14,4.01-10.48,0h0c-1.98-3.39-1.99-7.58-.03-10.97l5.27-9.13Z"/>
  <path class="cls-2" d="M367.09,92.84l5.27,9.13c1.96,3.4,1.95,7.59-.03,10.97h0c-2.34,4.01-8.14,4.01-10.48,0h0c-1.98-3.39-1.99-7.58-.03-10.97l5.27-9.13Z"/>
  <circle class="cls-4" cx="137.45" cy="10.64" r="10.64"/>
  <circle class="cls-4" cx="448.01" cy="46.42" r="10.64"/>
  <rect class="cls-4" x="145.04" y="7.11" width="244.72" height="8.13"/>
  <rect class="cls-4" x="442.02" y="42.36" width="189.95" height="8.13"/>
  <rect class="cls-4" x="378.58" y="11.17" width="14.24" height="8.13" transform="translate(400.94 -370.46) rotate(90)"/>
  <rect class="cls-4" x="593.59" y="80.74" width="68.62" height="8.13" transform="translate(712.7 -543.11) rotate(90)"/>
  <polygon class="cls-4" points="627.91 136.13 638.35 118.04 617.46 118.04 627.91 136.13"/>
  <polygon class="cls-4" points="385.7 36.88 396.14 18.79 375.26 18.79 385.7 36.88"/>
</svg>